<svg width="27" height="18" viewBox="0 0 27 18" fill="none" xmlns="http://www.w3.org/2000/svg">
<path d="M11.7778 1.4834C8.60555 1.4834 6.03333 4.05562 6.03333 7.22784C6.03333 10.4001 8.59999 12.9778 11.7778 12.9778C14.9555 12.9778 17.5222 10.4056 17.5222 7.22784C17.5167 4.05562 14.95 1.48895 11.7778 1.4834ZM11.7778 11.8667C9.21666 11.8667 7.14444 9.78895 7.14444 7.2334C7.14444 4.67784 9.22221 2.60007 11.7778 2.60007C14.3333 2.60007 16.4111 4.67784 16.4111 7.2334C16.4111 9.78895 14.3333 11.8612 11.7778 11.8667Z" fill="#636773"/>
<path d="M24.7167 3.55556H23.5556V2.2C23.5556 1 22.5778 0 21.3833 0H2.17222C0.977778 0 0 1 0 2.2V12.2556C0 13.4556 0.972222 14.4333 2.17222 14.4444H3.33333V15.8C3.33333 17 4.31111 18 5.50556 18H24.7167C25.9111 18 26.8889 17 26.8889 15.8V5.74444C26.8889 4.53889 25.9167 3.56111 24.7167 3.55556ZM2.17222 13.3333C1.58333 13.3278 1.11111 12.8444 1.11111 12.2556V2.2C1.11111 1.61111 1.58889 1.11111 2.17222 1.11111H21.3833C21.9667 1.11111 22.4444 1.61111 22.4444 2.2V12.2556C22.4444 12.8444 21.9722 13.3222 21.3833 13.3333H2.17222ZM25.7778 15.8C25.7778 16.3889 25.3 16.8889 24.7167 16.8889H5.50556C4.92222 16.8889 4.44444 16.3889 4.44444 15.8V14.4444H21.3833C22.5833 14.4389 23.5556 13.4611 23.5556 12.2556V4.66667H24.7167C25.3056 4.67222 25.7778 5.15556 25.7778 5.74444V15.8Z" fill="#636773"/>
<path d="M13.5668 5.44989H13.0279C12.9835 5.31656 12.9279 5.18323 12.8612 5.061H13.5668C13.8724 5.05545 14.1224 4.80545 14.1224 4.49989C14.1224 4.19434 13.8724 3.94434 13.5668 3.94434H9.98903C9.68347 3.94434 9.43347 4.19434 9.43347 4.49989C9.43347 4.80545 9.68347 5.05545 9.98903 5.05545H11.0112C11.3224 5.05545 11.6224 5.19989 11.8168 5.44434H9.98903C9.68347 5.44434 9.43347 5.69434 9.43347 5.99989C9.43347 6.30545 9.68347 6.55545 9.98903 6.55545H11.8224C11.789 6.611 11.7501 6.661 11.7057 6.70545C11.5224 6.88878 11.2724 6.99434 11.0112 6.99989H9.98903C9.68347 6.99989 9.43347 7.24989 9.43347 7.55545C9.43347 7.711 9.49458 7.85545 9.60569 7.961L12.1668 10.3777C12.389 10.5888 12.7446 10.5721 12.9501 10.3499C13.1557 10.1277 13.1446 9.77767 12.9279 9.57211L11.3557 8.08878C11.7835 8.01656 12.1835 7.81656 12.489 7.50545C12.489 7.50545 12.489 7.49434 12.4946 7.49434C12.7612 7.23878 12.9446 6.91656 13.0279 6.561H13.5668C13.8724 6.561 14.1224 6.311 14.1224 6.00545C14.1224 5.69989 13.8724 5.44989 13.5668 5.44989Z" fill="#636773"/>
<path d="M3.47808 1.7002C2.52808 1.7002 1.75586 2.47242 1.75586 3.42242C1.75586 4.37242 2.52808 5.14464 3.47808 5.14464C4.42808 5.14464 5.2003 4.37242 5.2003 3.42242C5.2003 2.47242 4.42808 1.7002 3.47808 1.7002ZM3.47808 4.02797C3.13919 4.02797 2.86697 3.75575 2.86697 3.41686C2.86697 3.07797 3.13919 2.80575 3.47808 2.80575C3.81697 2.80575 4.08919 3.07797 4.08919 3.41686C4.08919 3.75575 3.81697 4.02797 3.47808 4.02797Z" fill="#636773"/>
<path d="M20.0722 9.2666C19.1222 9.2666 18.35 10.0388 18.35 10.9888C18.35 11.9388 19.1222 12.711 20.0722 12.711C21.0222 12.711 21.7944 11.9388 21.7944 10.9888C21.7944 10.0388 21.0222 9.27216 20.0722 9.2666ZM20.0722 11.5999C19.7333 11.5999 19.4611 11.3277 19.4611 10.9888C19.4611 10.6499 19.7333 10.3777 20.0722 10.3777C20.4111 10.3777 20.6833 10.6499 20.6833 10.9888C20.6833 11.3222 20.4111 11.5944 20.0722 11.5999Z" fill="#636773"/>
</svg>
