<svg width="40" height="40" viewBox="0 0 40 40" fill="none" xmlns="http://www.w3.org/2000/svg">
<circle cx="20" cy="20" r="19.5" fill="#F8F7FD" stroke="#EBECEF"/>
<path fill-rule="evenodd" clip-rule="evenodd" d="M25.1832 9.39179C24.4795 9.52181 23.8896 9.83656 23.3535 10.3681C22.9375 10.7807 22.653 11.2281 22.4977 11.7142C22.2485 12.4943 22.2499 12.9808 22.5043 14.0203C22.5224 14.0946 22.1538 14.3342 19.6832 15.8539C18.1201 16.8154 16.8264 17.6078 16.8083 17.615C16.7902 17.6221 16.6278 17.5048 16.4474 17.3544C16.0619 17.0331 15.4991 16.7401 15.0283 16.6159C14.5806 16.4977 13.7767 16.4897 13.3498 16.5991C12.2861 16.8718 11.3755 17.619 10.9543 18.5646C10.734 19.0596 10.6667 19.3948 10.6667 19.9982C10.6667 20.6016 10.734 20.9368 10.9543 21.4317C11.3672 22.3589 12.2652 23.108 13.2892 23.3795C13.7746 23.5082 14.5427 23.5086 15.0283 23.3805C15.4991 23.2562 16.0619 22.9633 16.4474 22.642C16.6278 22.4915 16.7902 22.3743 16.8083 22.3814C16.8264 22.3885 18.1201 23.181 19.6832 24.1425C22.1538 25.6622 22.5224 25.9018 22.5043 25.9761C22.2491 27.0188 22.2487 27.5334 22.5025 28.291C22.6733 28.8011 22.9177 29.187 23.3368 29.6085C23.9048 30.1797 24.5195 30.4979 25.297 30.6232C27.0537 30.9063 28.7782 29.767 29.237 28.0202C29.4298 27.2859 29.3279 26.3439 28.98 25.6443C28.3761 24.4299 27.1624 23.6889 25.7916 23.6975C24.8841 23.7032 24.1159 24.0027 23.436 24.616L23.2109 24.819L21.6583 23.8617C20.8044 23.3352 19.5109 22.539 18.7839 22.0923C18.0569 21.6457 17.458 21.2768 17.453 21.2726C17.4479 21.2683 17.4798 21.1468 17.5238 21.0025C17.715 20.3752 17.715 19.6212 17.5238 18.9939C17.4798 18.8496 17.4479 18.728 17.453 18.7238C17.458 18.7196 18.0569 18.3507 18.7839 17.9041C19.5109 17.4574 20.8044 16.6615 21.6583 16.1353L23.2109 15.1785L23.472 15.411C24.5394 16.3613 26.0864 16.5771 27.3657 15.954C28.2885 15.5046 28.9965 14.6306 29.2376 13.6431C29.3611 13.1377 29.3608 12.4477 29.237 11.9762C28.7666 10.1854 26.9964 9.05674 25.1832 9.39179ZM26.4239 10.6883C27.5761 11.0244 28.2653 12.1796 27.9944 13.3206C27.899 13.7226 27.7016 14.0678 27.3905 14.3767C26.9168 14.8471 26.3326 15.0694 25.6867 15.0248C25.1032 14.9846 24.6418 14.7753 24.2376 14.3676C23.3579 13.4803 23.4029 12.0138 24.3353 11.1813C24.5734 10.9687 24.8556 10.8126 25.2041 10.7005C25.5043 10.604 26.1141 10.598 26.4239 10.6883ZM14.8961 17.9071C15.5347 18.1345 16.0472 18.6495 16.272 19.2898C16.4073 19.6749 16.407 20.3229 16.2714 20.7066C16.0458 21.3454 15.5306 21.8642 14.9008 22.0872C14.5503 22.2112 13.9781 22.2373 13.6226 22.1453C12.6195 21.886 11.9441 21.0232 11.9441 20.0014C11.9441 18.9947 12.5793 18.1545 13.5596 17.8648C13.9017 17.7636 14.551 17.7842 14.8961 17.9071ZM26.3271 25.02C27.1404 25.2104 27.8022 25.8659 27.9931 26.6701C28.2653 27.8171 27.5788 28.9712 26.4239 29.3081C26.1265 29.3948 25.5387 29.3944 25.2433 29.3074C24.4677 29.0787 23.9075 28.5223 23.6772 27.7521C23.5916 27.4657 23.59 26.9246 23.6738 26.605C23.8876 25.7901 24.6196 25.125 25.4559 24.986C25.6912 24.9469 26.0797 24.9621 26.3271 25.02Z" fill="#636773"/>
</svg>
