<svg width="306" height="261" viewBox="0 0 306 261" fill="none" xmlns="http://www.w3.org/2000/svg">
<path d="M135.382 166.865H54.7769V155.532H135.382V166.865Z" fill="#73A3CC"/>
<path d="M122.995 166.865H132.922L135.909 261H131.516L122.995 166.865Z" fill="#73A3CC"/>
<path d="M79.9029 261H75.5542L78.5412 166.865H88.4686L79.9029 261Z" fill="#73A3CC"/>
<path d="M57.6324 261H53.2397L56.2268 166.865H66.1542L57.6324 261Z" fill="#73A3CC"/>
<path d="M89.3911 155.532H54.7769L34.1313 82.2183H89.3911V155.532Z" fill="#73A3CC"/>
<path d="M204.523 155.532H285.128V166.865H204.523V155.532Z" fill="#73A3CC"/>
<path d="M208.389 261H203.996L206.983 166.865H216.911L208.389 261Z" fill="#73A3CC"/>
<path d="M251.437 166.865H261.364L264.351 261H259.958L251.437 166.865Z" fill="#73A3CC"/>
<path d="M273.707 166.865H283.634L286.665 261H282.273L273.707 166.865Z" fill="#73A3CC"/>
<path d="M250.514 82.2183H305.774L285.128 155.532H250.514V82.2183Z" fill="#73A3CC"/>
<path d="M200.13 229.681V243.078H191.564V232.404L200.13 229.681Z" fill="#FF9C63"/>
<path d="M199.602 88.4998V98.7786L180.582 85.1614L179.835 84.8539L172.236 83.6678C166.291 82.965 162.689 81.3105 161.43 78.7041C160.2 76.1271 160.098 73.0376 161.123 69.4356C161.855 69.2306 162.397 70.973 162.748 74.6629C163.07 74.1651 163.158 73.4037 163.012 72.3787C162.865 71.3245 162.807 70.4606 162.836 69.787C163.978 69.7431 165.34 71.5002 165.471 73.6965C165.647 75.8489 165.955 77.9574 166.174 78.3527C166.321 78.587 166.321 76.1564 166.174 71.0609C166.701 70.9731 167.126 71.0902 167.448 71.4123C168.239 72.2469 168.283 72.6862 168.283 75.2339C168.283 76.9324 168.854 78.2795 169.996 79.2752C169.996 77.7524 170.04 76.2589 170.128 74.7947C170.508 74.7947 170.948 75.0582 171.445 75.5853C172.236 76.3467 172.353 77.401 171.797 78.7481L178.737 80.8126C178.796 79.7877 178.708 78.9677 178.474 78.3527C178.122 77.3863 174.564 75.7611 173.554 74.7068C172.88 73.9747 172.778 73.0083 173.246 71.8077C176.292 73.7404 178.664 75.1607 180.363 76.0685C182.061 77.0056 183.247 78.587 183.921 80.8126L199.602 88.4998Z" fill="#FF9C63"/>
<path d="M226.002 119.469L202.282 122.368C201.433 122.69 200.393 122.953 199.163 123.158C197.318 123.466 192.706 124.388 189.895 123.773C187.039 123.158 186.381 119.205 186.205 118.327C186.117 117.77 187.874 116.731 191.476 115.208C188.665 115.471 186.659 115.706 185.458 115.911C183.613 116.218 183.218 116.262 183.218 115.164C183.218 114.022 189.368 112.572 193.013 112.353C195.473 112.177 199.266 113.582 204.39 116.569L220.292 112.924L226.002 119.469Z" fill="#FF9C63"/>
<path d="M242.651 89.0273L214.23 109.453L194.99 98.1201L198.636 87.1385L214.362 91.9265L233.47 70.5781L242.651 89.0273Z" fill="#D2565B"/>
<path d="M282.536 63.0226C279.579 84.4295 277.631 99.9356 276.694 109.541C275.786 119.176 275.069 128.18 274.542 136.556L248.274 135.458L240.235 99.8331L233.47 93.332L237.16 77.9137L233.47 70.578L266.591 47.2969C278.246 50.2253 283.561 55.4672 282.536 63.0226Z" fill="#E65F64"/>
<path d="M275.948 57.1366C280.545 58.8644 282.39 63.3596 281.482 70.6221L260.837 117.053L224.202 124.213L220.292 113.055L248.274 103.743L262.33 61.4854C266.811 56.8291 271.35 55.3796 275.948 57.1366Z" fill="#D2565B"/>
<path d="M252.051 58.5421L243.924 65.0433L239.312 59.6842L248.537 51.9971L252.051 58.5421Z" fill="#A9BDDB"/>
<path d="M88.644 230.69H100.285L101.207 242.199L89.6544 245.142L88.644 230.69Z" fill="#FF9C63"/>
<path d="M99.45 52.5684L123.873 60.8266L116.889 132.954L70.722 138.05L50.7793 68.4698L77.3988 53.403L99.45 52.5684Z" fill="#30586C"/>
<path d="M77.3991 53.403L99.4503 52.5684L104.15 54.1497L91.0603 75.8056L71.0298 57.0489L77.3991 53.403Z" fill="#949284"/>
<path d="M76.2564 10.7501C80.4733 8.90522 89.4344 8.15847 94.6177 11.3212C99.8011 14.44 100.548 18.3934 101.514 23.1814C102.481 27.9255 103.667 26.9152 105.555 28.6283C107.708 30.605 104.457 31.7032 104.413 31.5274C106.258 36.9743 106.273 40.6495 104.457 42.553C103.052 43.988 99.7718 44.3101 94.6177 43.5194L95.8037 51.6019L90.0054 60.4312L78.1891 51.9973C78.9798 48.0146 78.482 43.6073 76.6956 38.7753C73.9722 31.5274 69.0963 31.8349 66.9439 22.1271C65.8018 16.9877 72.0394 12.5951 76.2564 10.7501Z" fill="#FF9C63"/>
<path d="M76.8281 49.0537L86.4041 54.852L82.1871 64.9991L72.1279 54.5445L76.8281 49.0537Z" fill="#D5E5FD"/>
<path d="M89.3906 54.5009L97.2096 47.3408L102.173 51.7335L96.4628 64.3404L89.3906 54.5009Z" fill="#D5E5FD"/>
<path d="M86.4039 54.8524L89.3909 54.501L94.3985 61.4853L90.1816 68.4696L83.1094 62.7592L86.4039 54.8524Z" fill="#A85160"/>
<path d="M87.7214 13.7808C86.3451 15.0694 86.7404 17.5146 88.9074 21.1166C87.2382 22.0537 86.184 23.064 85.7447 24.1475C85.1297 25.7289 85.7008 30.2533 85.7447 30.5169C85.6129 30.2533 83.6362 25.685 81.4399 25.7728C79.1557 25.9046 77.8818 28.057 79.0679 31.3954C79.8585 33.5918 80.9421 34.8217 82.3184 35.0853L77.3987 40.9275C74.9827 35.261 73.3135 35.1292 69.2722 29.7262C66.6073 26.1242 65.0992 23.0347 64.7478 20.4577C61.2629 21.6876 59.5205 20.9409 59.5205 18.2174C62.244 18.3053 61.9365 15.8454 63.3421 14.7472C62.3172 10.8524 64.2499 8.83178 69.1404 8.68536C69.1112 5.66906 69.9311 3.86807 71.6003 3.28238C73.2403 2.69669 74.9973 2.7699 76.8715 3.50201C77.9843 1.56924 79.4339 0.456433 81.2203 0.163589C84.178 -0.363531 85.8472 0.383222 86.2279 2.40385C89.1563 -0.0853292 92.0848 -0.143899 95.0132 2.22814C97.9124 4.62946 97.7806 7.6604 94.6179 11.321C92.1287 11.5845 90.1081 12.1848 88.556 13.1219C88.2339 13.3269 87.9557 13.5466 87.7214 13.7808Z" fill="#574B47"/>
<path d="M98.8787 25.0699C99.2741 26.2999 99.1862 27.398 98.6591 27.5737C98.1759 27.7055 97.4731 26.8709 97.0777 25.641C96.6824 24.411 96.7702 23.3128 97.2974 23.1371C97.7805 22.9614 98.4834 23.84 98.8787 25.0699Z" fill="#574B47"/>
<path d="M93.3879 21.3802C93.3001 21.3802 93.2122 21.3509 93.1244 21.2924C92.9047 21.1606 92.8608 20.897 92.9926 20.7213C93.0365 20.6774 93.6515 19.7989 94.9693 19.14C96.2871 18.4371 97.7806 18.7885 97.8245 18.7885C98.0441 18.8325 98.2198 19.096 98.132 19.3157C98.0881 19.5353 97.8684 19.711 97.6488 19.6231C97.6049 19.6231 96.3749 19.3596 95.3646 19.8867C94.2665 20.4577 93.7393 21.2045 93.7393 21.2045C93.6515 21.3363 93.5197 21.3802 93.3879 21.3802Z" fill="#574B47"/>
<path d="M101.734 38.4242C101.617 38.4242 101.485 38.4242 101.339 38.4242C98.791 38.2485 97.6489 36.6232 97.605 36.5354C97.4732 36.3597 97.561 36.0961 97.7367 35.9643C97.9564 35.8325 98.2199 35.8765 98.3517 36.0522C98.3956 36.14 99.2742 37.4139 101.383 37.5457C103.491 37.6775 104.238 36.6671 104.282 36.6232C104.414 36.4475 104.677 36.4036 104.853 36.5354C105.072 36.6671 105.116 36.9307 104.985 37.1503C104.941 37.1943 104.018 38.4242 101.734 38.4242Z" fill="#914F49"/>
<path d="M43.3119 185.314L34.3509 195.989L24.687 188.741L33.9995 178.418L43.3119 185.314Z" fill="#FF9C63"/>
<path d="M94.1786 100.009C95.2914 99.0717 95.9503 98.2517 96.1553 97.5489C96.4628 96.4947 96.0235 95.3526 95.4525 93.9908C94.8815 92.6291 95.2768 89.5543 95.5843 88.7636C95.8479 88.0168 95.4964 85.1177 94.574 83.2288C93.6076 81.296 94.5301 80.6811 95.8479 80.9007C97.2096 81.1203 98.747 83.7559 98.8788 85.4691C98.9374 86.6112 99.6402 87.885 100.987 89.2907C104.589 86.7722 107.137 85.0591 108.63 84.1513C110.885 82.8042 111.676 83.1849 111.003 85.2934C112.877 83.4777 114.121 83.2727 114.736 84.6784C115.029 85.3519 114.883 85.8791 114.297 86.2597C114.561 86.5819 114.736 87.0797 114.824 87.7533C114.883 88.2511 114.297 89.0418 113.067 90.1253C113.214 89.8617 113.462 90.0814 113.814 90.7842C114.077 91.2674 113.77 92.1899 111.574 94.9133C109.992 96.89 107.884 100.053 105.951 101.634C102.847 104.182 99.5816 106.891 96.1553 109.761L94.1786 100.009Z" fill="#FF9C63"/>
<path d="M63.2103 111.869L94.3982 98.3398L96.8581 112.309L68.6132 130.67C62.1999 132.515 56.2552 129.645 50.779 122.06C45.3028 114.476 45.3028 96.6121 50.779 68.4697L63.2103 111.869Z" fill="#2A4654"/>
<path d="M29.1675 180.966L74.8073 119.38C80.4738 111.781 91.2358 110.288 98.7473 116.042L125.543 139.279C125.543 151.271 113.682 166.514 97.6052 156.498L85.0861 147.581L41.5548 189.224L29.1675 180.966Z" fill="#4D5E66"/>
<path d="M63.2104 111.869L56.1821 114.373V109.058L63.2104 111.869Z" fill="#A8A696"/>
<path d="M31.3197 191.112C31.2026 192.489 32.6375 193.631 35.6245 194.539L24.7746 209.342L0 193.001C1.25923 190.014 2.24026 188.404 2.94308 188.169C3.9534 187.818 7.07219 188.345 14.8033 188.872C19.9573 189.224 24.145 188.184 27.3663 185.753C30.2362 186.808 31.554 188.594 31.3197 191.112Z" fill="#574B47"/>
<path d="M97.6052 156.498L100.724 234.029H88.0291L70.5903 153.336C68.6575 143.364 76.3007 134.052 86.4917 134.052L97.6052 156.498Z" fill="#455963"/>
<path d="M95.7165 241.76C96.39 242.99 98.2203 243.136 101.207 242.199L100.504 260.824H70.8101C70.1951 257.661 70.1072 255.787 70.5465 255.201C71.2054 254.323 74.0606 253.049 80.7814 249.14C85.2619 246.533 88.0879 243.312 89.2593 239.476C92.3634 238.773 94.5158 239.534 95.7165 241.76Z" fill="#574B47"/>
<path d="M194.639 241.892C195.312 243.122 197.143 243.268 200.13 242.331L199.427 261H169.732C169.117 257.808 169.03 255.919 169.469 255.334C170.128 254.499 172.983 253.181 179.704 249.272C184.184 246.665 187.01 243.459 188.182 239.652C191.286 238.92 193.438 239.666 194.639 241.892Z" fill="#574B47"/>
<path d="M229.429 197.702L232.196 210.836L223.806 212.593L221.566 202.138L229.429 197.702Z" fill="#FF9C63"/>
<path d="M226.574 210.792C227.481 211.846 229.312 211.612 232.064 210.089L235.183 228.494L206.148 234.6C204.888 231.613 204.42 229.798 204.742 229.153C205.225 228.187 207.729 226.298 213.483 221.115C217.32 217.63 219.428 213.896 219.809 209.913C222.679 208.566 224.934 208.859 226.574 210.792Z" fill="#574B47"/>
<path d="M123.873 60.8262C136.846 90.4034 141.664 109.482 138.325 118.063C135.821 124.52 132.834 126.365 124.972 126.936L120.93 118.458L120.008 106.246H123.873L120.096 99.7013L123.873 60.8262Z" fill="#2A4654"/>
<path d="M131.121 103.699L131.648 108.267L120.008 106.246L131.121 103.699Z" fill="#A8A696"/>
<path d="M124.268 110.419C126.611 114.812 127.665 118.209 127.431 120.61C127.123 124.256 125.981 127.727 124.62 126.76C123.683 126.145 122.57 124.051 121.281 120.479L124.268 110.419Z" fill="#858377"/>
<path d="M104.15 91.8825L103.755 92.8049L102.569 91.7068H103.36L111.003 85.2935L104.15 91.8825Z" fill="#C67759"/>
<path d="M106.566 93.9907L106.303 94.6936L105.907 93.7711L113.463 87.1382L106.566 93.9907Z" fill="#C67759"/>
<path d="M107.664 96.8464L107.401 96.1875L112.716 90.4771L107.664 96.8464Z" fill="#C67759"/>
<path d="M126.289 114.022C126.289 114.051 126.289 114.066 126.289 114.066C127.475 117.316 128.002 120.962 126.86 124.213C124.986 123.071 123.155 121.958 121.369 120.874C119.612 119.776 118.25 119.117 116.318 117.712C114.385 116.306 111.969 113.143 110.3 111.43C107.928 108.97 107.576 108.399 107.576 107.74C107.635 107.037 108.015 106.847 108.718 107.169C107.4 106.261 106.771 105.573 106.829 105.105C106.888 104.519 107.195 104.153 107.752 104.006C107.518 103.655 107.547 103.172 107.84 102.557C108.484 101.298 109.275 101.224 110.212 102.337C109.538 100.287 110.373 99.7895 112.716 100.844C115.293 101.986 118.69 103.758 122.907 106.159C124.956 110.786 126.084 113.407 126.289 114.022Z" fill="#FF9C63"/>
<path d="M114.736 112.089V112.704L108.718 107.169L114.736 112.089Z" fill="#C67759"/>
<path d="M115.571 108.487L115.263 109.453L107.752 104.006L115.571 108.487Z" fill="#C67759"/>
<path d="M117.064 105.632L116.23 106.247L110.212 102.337L117.064 105.632Z" fill="#C67759"/>
<path d="M122.379 108.224L122.994 105.149C121.647 104.651 120.857 104.007 120.622 103.216C120.388 102.425 120.271 101.766 120.271 101.239C124.078 102.996 126.011 104.094 126.069 104.534C126.128 105.002 125.718 107.243 124.839 111.255L122.379 108.224Z" fill="#FF9C63"/>
<path d="M259.826 23.1373L260.133 34.646L263.999 51.3821L251.436 63.0227L246.428 43.9585C242.036 46.5062 237.716 47.1212 233.47 45.8034C229.224 44.4856 228.492 40.049 231.274 32.4936C229.956 32.0544 229.136 31.3369 228.814 30.3412C228.155 28.2767 230.878 27.8813 232.547 26.7393C234.261 25.5972 234.261 23.0494 236.149 19.0082C237.438 16.2847 239.239 14.6448 241.552 14.0884L259.826 23.1373Z" fill="#FF9C63"/>
<path d="M266.591 53.5785L253.501 67.6789L248.273 59.7721L263.296 45.1885L266.591 53.5785Z" fill="#D5E5FD"/>
<path d="M236.765 25.9045C237.204 26.0802 237.292 27.0466 236.94 28.1448C236.589 29.2429 235.974 29.9897 235.491 29.8579C235.051 29.7261 234.964 28.7158 235.315 27.6176C235.666 26.5634 236.325 25.7727 236.765 25.9045Z" fill="#574B47"/>
<path d="M240.235 24.3669C240.103 24.3669 240.015 24.323 239.927 24.1912C239.927 24.1912 239.444 23.5323 238.478 23.0491C237.555 22.5659 236.457 22.7855 236.457 22.8295C236.237 22.8734 236.018 22.7416 235.974 22.522C235.93 22.3023 236.062 22.1266 236.281 22.0388C236.325 22.0388 237.643 21.7313 238.829 22.3463C239.971 22.9173 240.542 23.708 240.542 23.7519C240.674 23.9276 240.63 24.1912 240.454 24.279C240.396 24.3376 240.322 24.3669 240.235 24.3669Z" fill="#842C37"/>
<path d="M233.69 39.9611C233.485 39.9611 233.266 39.9464 233.031 39.9171C232.812 39.8732 232.68 39.6975 232.724 39.4779C232.724 39.2582 232.943 39.1265 233.163 39.1704C235.052 39.4779 236.897 38.0722 236.897 38.0722C237.072 37.9404 237.336 37.9844 237.468 38.1601C237.6 38.2919 237.556 38.5554 237.38 38.6872C237.292 38.7311 235.667 39.9611 233.69 39.9611Z" fill="#914F49"/>
<path d="M264.658 7.01619C274.454 7.89472 276.606 19.4035 274.19 31.1319C271.774 42.8603 278.539 46.9016 285.436 57.1365C290.033 63.9598 288.159 70.8855 279.813 77.9138C265.288 67.635 256.634 60.3578 253.852 56.0823C251.1 51.8067 249.416 43.08 248.801 29.902C249.152 29.492 247.644 27.9546 244.276 25.2897C240.909 22.5955 238.537 18.3786 237.16 12.6388C239.854 7.51403 249.02 5.63982 264.658 7.01619Z" fill="#842C37"/>
<path d="M274.542 136.556C279.344 153.073 277.104 162.019 267.821 163.395C258.508 164.772 239.063 165.811 209.486 166.514L200.174 234.029H191.125C185.971 181.962 185.971 154.244 191.125 150.876C196.308 147.509 215.358 142.369 248.273 135.458L274.542 136.556Z" fill="#574B47"/>
<path d="M224.246 140.949L230.308 201.348L221.127 203.808C202.326 155.02 197.67 129.293 207.158 126.628C216.617 123.964 230.322 126.907 248.274 135.458L224.246 140.949Z" fill="#6B5D57"/>
<path d="M259.958 125.179H95.585V119.468H259.958V125.179Z" fill="#FEEDC5"/>
<path d="M109.729 261H106.303V125.135H109.729V261Z" fill="#AD8F84"/>
<path d="M247.483 261H244.013V125.135H247.483V261Z" fill="#AD8F84"/>
</svg>
