<svg width="312" height="285" viewBox="0 0 312 285" fill="none" xmlns="http://www.w3.org/2000/svg">
<path d="M312 284.229C312 284.3 242.147 284.442 156 284.442C69.8529 284.442 0 284.3 0 284.229C0 284.158 69.8529 284.017 156 284.017C242.147 284.017 312 284.158 312 284.229Z" fill="#263238"/>
<path d="M283.235 233.292L137.083 233.221C132.549 233.221 128.936 229.537 128.936 225.003L129.006 8.21798C129.006 3.68392 132.69 0 137.224 0L283.377 0.0708463C287.911 0.0708463 291.524 3.75477 291.524 8.28883L291.453 225.074C291.453 229.608 287.769 233.292 283.235 233.292Z" fill="#263238"/>
<path d="M285.998 210.974L133.752 210.903L133.823 16.1509L286.069 16.2217L285.998 210.974Z" fill="white"/>
<path d="M216.429 221.531C216.429 225.003 213.595 227.766 210.194 227.766C206.723 227.766 203.96 224.932 203.96 221.531C203.96 218.06 206.723 215.297 210.194 215.297C213.595 215.297 216.429 218.06 216.429 221.531Z" fill="#455A64"/>
<path d="M233.929 9.35221H186.675C186.179 9.35221 185.825 8.92714 185.825 8.43123V7.58109C185.825 7.15602 186.179 6.73096 186.675 6.73096L233.929 6.8018C234.354 6.8018 234.779 7.15602 234.779 7.65193V8.50207C234.779 8.99799 234.354 9.35221 233.929 9.35221Z" fill="#455A64"/>
<path d="M279.553 183.983C278.561 183.983 277.711 183.133 277.711 182.142L277.853 43.8527C277.853 42.8609 278.632 42.0107 279.624 42.0107C280.686 42.0107 281.466 42.8609 281.466 43.8527L281.395 182.142C281.395 183.133 280.616 183.983 279.553 183.983Z" fill="#E0E0E0"/>
<path d="M241.792 32.0929C241.792 32.1637 227.694 32.3054 210.266 32.2346C192.838 32.2346 178.74 32.1637 178.74 32.0929C178.74 31.9512 192.838 31.8804 210.266 31.8804C227.694 31.8804 241.792 32.0221 241.792 32.0929Z" fill="#263238"/>
<path d="M148.632 35.6348C148.632 35.5876 148.679 35.564 148.774 35.564C148.963 35.564 149.151 35.564 149.34 35.564C149.907 35.564 150.616 35.5404 151.466 35.4931L151.395 35.564C151.395 35.0917 151.371 34.5958 151.324 34.0762C151.395 33.7929 151.324 33.5095 151.395 33.2261C151.395 32.8719 151.678 32.5885 152.103 32.5177C152.387 32.5177 152.67 32.5177 153.095 32.5177C153.449 32.5885 153.804 32.9427 153.733 33.3678C153.78 34.0762 153.804 34.8083 153.804 35.564L153.662 35.4223C154.512 35.4223 155.386 35.4223 156.283 35.4223L156.212 35.564C156.165 34.4777 156.141 33.3914 156.141 32.3051C156.141 32.0217 156.141 31.7384 156.141 31.455C156.141 31.1716 156 31.0299 155.787 30.8174C155.409 30.4395 155.032 30.0617 154.654 29.6839C154.276 29.306 153.898 28.9518 153.52 28.6212C153.331 28.4323 153.166 28.2434 153.024 28.0544C152.812 27.9128 152.67 27.7002 152.458 27.6294C152.245 27.6294 152.032 27.6294 151.891 27.7711C151.678 27.9128 151.537 28.1253 151.395 28.267C151.064 28.5976 150.734 28.9046 150.403 29.188C149.836 29.8256 149.199 30.3923 148.774 30.8882C148.561 31.1716 148.632 31.5258 148.632 31.8801C148.632 32.2107 148.632 32.5177 148.632 32.801C148.632 33.3678 148.632 33.8637 148.632 34.2888C148.632 34.6666 148.632 34.9972 148.632 35.2806C148.632 35.4695 148.632 35.5876 148.632 35.6348C148.585 35.6348 148.561 35.5167 148.561 35.2806C148.561 35.0444 148.561 34.7375 148.561 34.3596C148.561 33.9346 148.537 33.4386 148.49 32.8719C148.49 32.5413 148.49 32.2107 148.49 31.8801C148.49 31.7384 148.49 31.5731 148.49 31.3841C148.49 31.1952 148.537 31.0063 148.632 30.8174C149.128 30.2506 149.695 29.6839 150.332 29.0463C150.616 28.7629 150.923 28.4559 151.253 28.1253C151.395 27.9128 151.537 27.7711 151.749 27.6294C151.962 27.4168 152.245 27.4168 152.528 27.4877C152.812 27.4877 152.953 27.7711 153.166 27.9127C153.355 28.1017 153.52 28.267 153.662 28.4087C154.04 28.7865 154.418 29.1643 154.795 29.5422C155.173 29.92 155.551 30.2979 155.929 30.6757C156.141 30.8174 156.425 31.1008 156.354 31.455C156.401 31.7384 156.425 31.9981 156.425 32.2343C156.425 33.3678 156.425 34.4777 156.425 35.564V35.6348H156.283C155.386 35.6348 154.512 35.6584 153.662 35.7057H153.591V35.564C153.591 34.8083 153.591 34.0762 153.591 33.3678C153.591 33.0844 153.308 32.801 153.024 32.7302C152.741 32.7302 152.387 32.7302 152.103 32.7302C151.82 32.7302 151.607 32.9427 151.537 33.2261C151.537 33.5095 151.537 33.7929 151.537 34.0762C151.537 34.5958 151.537 35.0917 151.537 35.564V35.6348H151.466C150.616 35.6348 149.907 35.6348 149.34 35.6348C149.104 35.6348 148.915 35.6348 148.774 35.6348C148.632 35.6348 148.585 35.6348 148.632 35.6348Z" fill="#263238"/>
<path fill-rule="evenodd" clip-rule="evenodd" d="M269.139 28.6214L268.855 30.18L268.288 33.0138C268.288 33.061 268.265 33.0846 268.218 33.0846L261.062 33.0138L261.204 34.2181L268.005 34.289C268.147 34.289 268.288 34.289 268.288 34.4307C268.288 34.5015 268.147 34.5015 268.005 34.5015H266.092H261.062C261.015 34.5015 260.968 34.4779 260.921 34.4307L260.07 27.6296H258.512C258.37 27.5587 258.299 27.5587 258.299 27.4879C258.299 27.3462 258.37 27.3462 258.512 27.3462H260.212C260.259 27.3462 260.307 27.3698 260.354 27.417L260.425 28.1255L260.496 28.4797H260.991H262.833L268.997 28.5505C269.044 28.5505 269.068 28.5505 269.068 28.5505C269.115 28.5978 269.139 28.6214 269.139 28.6214ZM261.062 32.8012H261.416H262.975H268.005L268.784 28.8339L260.496 28.6922L261.062 32.8012Z" fill="#263238"/>
<path fill-rule="evenodd" clip-rule="evenodd" d="M262.975 36.2721C262.975 36.3429 262.975 36.4138 262.975 36.4846C262.904 36.5554 262.833 36.768 262.621 36.9805C262.55 37.0514 262.338 37.1222 262.125 37.1222C262.031 37.1222 261.936 37.0986 261.842 37.0514C261.558 36.9805 261.275 36.6971 261.275 36.2721C261.275 35.9178 261.487 35.5636 261.842 35.4928C262.196 35.3511 262.479 35.4928 262.692 35.6345C262.833 35.7761 262.904 35.9887 262.975 36.0595C262.975 36.1304 262.975 36.2012 262.975 36.2721ZM262.479 36.768C262.621 36.6263 262.692 36.4846 262.692 36.4137C262.692 36.3665 262.715 36.3193 262.763 36.2721C262.715 36.2248 262.692 36.1776 262.692 36.1304C262.692 36.0595 262.621 35.9178 262.479 35.847C262.408 35.7762 262.267 35.7053 262.125 35.7053C262.078 35.7053 262.031 35.7289 261.983 35.7762C261.771 35.847 261.558 35.9887 261.558 36.2721C261.558 36.5554 261.771 36.768 261.913 36.768C262.125 36.9097 262.338 36.8388 262.479 36.768Z" fill="#263238"/>
<path fill-rule="evenodd" clip-rule="evenodd" d="M267.509 36.3433C267.509 36.4141 267.509 36.485 267.509 36.485C267.438 36.6266 267.367 36.8392 267.155 36.9809C267.084 37.0517 266.871 37.1934 266.659 37.1934C266.564 37.1934 266.47 37.1698 266.375 37.1225C266.092 37.0517 265.809 36.6975 265.809 36.3433C265.809 35.989 266.092 35.6348 266.375 35.4931C266.73 35.4223 267.013 35.4931 267.225 35.6348C267.438 35.8473 267.438 36.0599 267.509 36.1307C267.509 36.2016 267.509 36.2724 267.509 36.3433ZM267.013 36.7683C267.155 36.6975 267.225 36.5558 267.225 36.485C267.273 36.4377 267.296 36.3905 267.296 36.3433C267.296 36.3433 267.296 36.3196 267.296 36.2724C267.296 36.2724 267.273 36.2488 267.225 36.2016C267.225 36.1307 267.155 35.989 267.013 35.8473C266.942 35.7765 266.8 35.7765 266.659 35.7765C266.612 35.7765 266.564 35.7765 266.517 35.7765C266.305 35.8473 266.092 36.0599 266.092 36.3433C266.092 36.5558 266.305 36.7683 266.517 36.8392C266.73 36.91 266.871 36.8392 267.013 36.7683Z" fill="#263238"/>
<path fill-rule="evenodd" clip-rule="evenodd" d="M172.648 190.005C172.648 191.068 171.94 191.635 170.735 191.635H169.46V193.123H168.964V188.447H170.735C171.94 188.447 172.648 189.014 172.648 190.005ZM172.152 190.005C172.152 189.297 171.656 188.872 170.735 188.872H169.46V191.21H170.735C171.656 191.21 172.152 190.785 172.152 190.005Z" fill="#263238"/>
<path d="M176.899 189.581V193.123H176.474V192.485C176.19 192.91 175.765 193.194 175.199 193.194C174.278 193.194 173.64 192.698 173.711 191.635V189.581H174.136V191.635C174.136 192.344 174.561 192.769 175.199 192.769C175.978 192.769 176.403 192.273 176.403 191.423V189.581H176.899Z" fill="#263238"/>
<path d="M180.016 189.581V190.006C179.969 190.006 179.945 190.006 179.945 190.006C179.166 190.006 178.741 190.502 178.741 191.352V193.123H178.245V189.581H178.67V190.289C178.906 189.817 179.355 189.581 180.016 189.581Z" fill="#263238"/>
<path d="M180.512 191.352C180.512 190.289 181.291 189.581 182.354 189.581C182.92 189.581 183.416 189.793 183.7 190.289L183.346 190.502C183.133 190.147 182.708 190.006 182.354 190.006C181.574 190.006 181.008 190.572 181.008 191.352C181.008 192.202 181.574 192.769 182.354 192.769C182.708 192.769 183.133 192.556 183.346 192.202L183.7 192.485C183.416 192.91 182.92 193.194 182.354 193.194C181.291 193.194 180.512 192.414 180.512 191.352Z" fill="#263238"/>
<path d="M187.88 191.068V193.123H187.384V191.139C187.384 190.36 186.959 190.006 186.321 190.006C185.542 190.006 185.046 190.501 185.046 191.281V193.123H184.621V188.164H185.046V190.218C185.33 189.793 185.825 189.58 186.392 189.58C187.242 189.58 187.88 190.076 187.88 191.068Z" fill="#263238"/>
<path fill-rule="evenodd" clip-rule="evenodd" d="M191.847 190.927V193.123H191.351V192.627C191.139 192.981 190.714 193.194 190.147 193.194C189.368 193.194 188.872 192.769 188.872 192.131C188.872 191.635 189.226 191.139 190.218 191.139H191.351V190.927C191.351 190.289 190.997 190.006 190.359 190.006C189.863 190.006 189.438 190.147 189.155 190.431L188.942 190.076C189.297 189.722 189.863 189.581 190.43 189.581C191.28 189.581 191.847 190.006 191.847 190.927ZM191.351 192.06V191.493H190.218C189.58 191.493 189.297 191.777 189.297 192.131C189.297 192.556 189.651 192.769 190.218 192.769C190.784 192.769 191.139 192.556 191.351 192.06Z" fill="#263238"/>
<path d="M192.626 192.769L192.839 192.344C193.122 192.556 193.618 192.769 194.114 192.769C194.752 192.769 195.035 192.556 195.035 192.202C195.035 191.281 192.768 191.989 192.768 190.572C192.768 190.006 193.264 189.581 194.185 189.581C194.61 189.581 195.106 189.722 195.389 189.935L195.177 190.289C194.893 190.076 194.539 190.006 194.185 190.006C193.547 190.006 193.264 190.218 193.264 190.572C193.264 191.564 195.531 190.785 195.531 192.202C195.531 192.769 195.035 193.194 194.114 193.194C193.477 193.194 192.91 192.981 192.626 192.769Z" fill="#263238"/>
<path fill-rule="evenodd" clip-rule="evenodd" d="M199.498 191.493H196.523C196.594 192.273 197.16 192.769 197.94 192.769C198.365 192.769 198.719 192.627 199.002 192.273L199.286 192.627C199.002 192.981 198.506 193.194 197.94 193.194C196.806 193.194 196.098 192.414 196.098 191.352C196.098 190.36 196.806 189.581 197.798 189.581C198.79 189.581 199.498 190.289 199.498 191.352C199.498 191.399 199.498 191.446 199.498 191.493ZM196.523 191.139H199.073C199.002 190.502 198.506 190.006 197.798 190.006C197.089 190.006 196.594 190.502 196.523 191.139Z" fill="#263238"/>
<path d="M207.433 189.581L206.087 193.123H205.662L204.529 190.218L203.395 193.123H202.97L201.624 189.581H202.12L203.183 192.627L204.387 189.581H204.741L205.875 192.627L207.008 189.581H207.433Z" fill="#263238"/>
<path fill-rule="evenodd" clip-rule="evenodd" d="M210.763 190.927V193.123H210.267V192.627C210.054 192.981 209.629 193.194 209.062 193.194C208.283 193.194 207.787 192.769 207.787 192.131C207.787 191.635 208.141 191.139 209.133 191.139H210.267V190.927C210.267 190.36 209.912 190.006 209.275 190.006C208.779 190.006 208.354 190.147 208.07 190.431L207.858 190.076C208.212 189.793 208.779 189.581 209.346 189.581C210.196 189.581 210.763 190.076 210.763 190.927ZM210.267 192.06V191.493H209.133C208.496 191.493 208.212 191.777 208.212 192.131C208.212 192.556 208.566 192.839 209.133 192.839C209.7 192.839 210.054 192.556 210.267 192.06Z" fill="#263238"/>
<path d="M211.542 192.769L211.755 192.344C212.038 192.627 212.534 192.769 213.03 192.769C213.668 192.769 213.951 192.556 213.951 192.202C213.951 191.281 211.684 191.989 211.684 190.572C211.684 190.006 212.18 189.581 213.101 189.581C213.526 189.581 214.022 189.722 214.305 189.935L214.093 190.289C213.81 190.076 213.455 190.006 213.101 190.006C212.463 190.006 212.18 190.218 212.18 190.572C212.18 191.564 214.447 190.856 214.447 192.202C214.447 192.769 213.951 193.194 212.959 193.194C212.393 193.194 211.826 192.981 211.542 192.769Z" fill="#263238"/>
<path d="M216.643 192.769L216.855 192.344C217.138 192.627 217.564 192.769 218.059 192.769C218.768 192.769 219.051 192.556 219.051 192.202C219.051 191.281 216.713 191.989 216.713 190.572C216.713 190.006 217.209 189.581 218.13 189.581C218.626 189.581 219.122 189.722 219.406 189.935L219.193 190.289C218.91 190.076 218.485 190.006 218.13 190.006C217.493 190.006 217.209 190.218 217.209 190.572C217.209 191.564 219.547 190.856 219.547 192.202C219.547 192.769 218.98 193.194 218.059 193.194C217.493 193.194 216.926 192.981 216.643 192.769Z" fill="#263238"/>
<path d="M223.585 189.651V193.194H223.16V192.485C222.877 192.981 222.452 193.194 221.885 193.194C220.964 193.194 220.397 192.698 220.397 191.706V189.651H220.823V191.635C220.823 192.414 221.248 192.769 221.885 192.769C222.664 192.769 223.09 192.273 223.09 191.493V189.651H223.585Z" fill="#263238"/>
<path d="M224.577 191.423C224.577 190.36 225.356 189.581 226.419 189.581C226.986 189.581 227.482 189.864 227.765 190.289L227.411 190.572C227.198 190.147 226.844 190.006 226.419 190.006C225.64 190.006 225.073 190.572 225.073 191.423C225.073 192.202 225.64 192.769 226.419 192.769C226.844 192.769 227.198 192.627 227.411 192.273L227.765 192.485C227.482 192.981 226.986 193.194 226.419 193.194C225.356 193.194 224.577 192.414 224.577 191.423Z" fill="#263238"/>
<path d="M228.332 191.423C228.332 190.36 229.04 189.581 230.103 189.581C230.741 189.581 231.237 189.864 231.52 190.289L231.166 190.572C230.953 190.218 230.528 190.006 230.103 190.006C229.324 190.006 228.757 190.572 228.757 191.423C228.757 192.202 229.324 192.769 230.103 192.769C230.528 192.769 230.953 192.627 231.166 192.273L231.52 192.485C231.237 192.981 230.741 193.194 230.103 193.194C229.04 193.194 228.332 192.485 228.332 191.423Z" fill="#263238"/>
<path fill-rule="evenodd" clip-rule="evenodd" d="M235.488 191.564H232.512C232.583 192.273 233.15 192.769 233.929 192.769C234.354 192.769 234.708 192.627 234.992 192.344L235.275 192.627C234.921 192.981 234.425 193.194 233.929 193.194C232.795 193.194 232.016 192.414 232.016 191.423C232.016 190.36 232.795 189.581 233.787 189.581C234.779 189.581 235.488 190.36 235.488 191.423C235.488 191.47 235.488 191.517 235.488 191.564ZM232.512 191.21H235.062C234.992 190.502 234.496 190.006 233.787 190.006C233.079 190.006 232.583 190.502 232.512 191.21Z" fill="#263238"/>
<path d="M235.983 192.769L236.196 192.414C236.479 192.627 236.975 192.769 237.471 192.769C238.109 192.769 238.392 192.556 238.392 192.202C238.392 191.281 236.125 191.989 236.125 190.643C236.125 190.006 236.621 189.581 237.471 189.581C237.967 189.581 238.463 189.722 238.746 189.935L238.534 190.289C238.25 190.076 237.896 190.006 237.471 190.006C236.834 190.006 236.55 190.289 236.55 190.572C236.55 191.564 238.888 190.856 238.888 192.202C238.888 192.839 238.321 193.194 237.4 193.194C236.834 193.194 236.267 192.981 235.983 192.769Z" fill="#263238"/>
<path d="M239.243 192.769L239.455 192.414C239.739 192.627 240.235 192.769 240.73 192.769C241.439 192.769 241.722 192.556 241.722 192.202C241.722 191.281 239.384 191.989 239.384 190.643C239.384 190.006 239.88 189.581 240.801 189.581C241.226 189.581 241.722 189.722 242.076 189.935L241.864 190.289C241.51 190.076 241.155 190.006 240.801 190.006C240.164 190.006 239.88 190.289 239.88 190.572C239.88 191.564 242.147 190.856 242.147 192.202C242.147 192.839 241.651 193.194 240.73 193.194C240.093 193.194 239.526 192.981 239.243 192.769Z" fill="#263238"/>
<path d="M243.564 189.226V189.651H244.697V190.006H243.634V193.194H243.139V190.006H242.501V189.651H243.139V189.226C243.139 188.589 243.493 188.164 244.201 188.164C244.485 188.164 244.768 188.234 244.91 188.376L244.768 188.73C244.626 188.589 244.437 188.518 244.201 188.518C243.823 188.518 243.611 188.754 243.564 189.226Z" fill="#263238"/>
<path d="M248.523 189.651V193.194H248.098V192.556C247.815 192.981 247.389 193.194 246.823 193.194C245.902 193.194 245.335 192.698 245.335 191.706V189.651H245.76V191.635C245.76 192.414 246.185 192.769 246.823 192.769C247.602 192.769 248.027 192.273 248.027 191.493V189.651H248.523Z" fill="#263238"/>
<path d="M249.869 188.164H250.365V193.194H249.869V188.164Z" fill="#263238"/>
<path d="M180.229 176.759H177.678V175.554H184.196V176.759H181.646V183.205H180.229V176.759Z" fill="#FF725E"/>
<path d="M190.926 179.876V183.205H189.51V180.088C189.51 179.025 189.014 178.529 188.164 178.529C187.172 178.529 186.534 179.096 186.534 180.301V183.205H185.117V175.129H186.534V178.034C186.959 177.608 187.668 177.325 188.447 177.325C189.864 177.325 190.926 178.104 190.926 179.876Z" fill="#FF725E"/>
<path fill-rule="evenodd" clip-rule="evenodd" d="M197.515 179.805V183.205H196.239V182.497C195.885 182.993 195.247 183.276 194.397 183.276C193.051 183.276 192.201 182.568 192.201 181.576C192.201 180.584 192.91 179.805 194.681 179.805H196.168V179.734C196.168 178.955 195.673 178.459 194.681 178.459C194.043 178.459 193.406 178.671 192.91 179.025L192.414 178.034C193.051 177.538 193.901 177.325 194.893 177.325C196.594 177.325 197.515 178.104 197.515 179.805ZM196.168 181.434V180.726H194.752C193.831 180.726 193.547 181.08 193.547 181.505C193.547 182.001 193.972 182.284 194.681 182.284C195.389 182.284 195.956 182.001 196.168 181.434Z" fill="#FF725E"/>
<path d="M205.024 179.876V183.205H203.678V180.088C203.678 179.025 203.182 178.53 202.261 178.53C201.34 178.53 200.632 179.096 200.632 180.301V183.205H199.286V177.396H200.561V178.104C201.057 177.609 201.765 177.325 202.615 177.325C204.032 177.325 205.024 178.104 205.024 179.876Z" fill="#FF725E"/>
<path d="M209.204 180.726L208.141 181.717V183.205H206.795V175.129H208.141V180.017L210.975 177.396H212.605L210.196 179.805L212.888 183.205H211.188L209.204 180.726Z" fill="#FF725E"/>
<path d="M222.239 177.396L219.547 183.701C218.981 185.047 218.201 185.401 217.28 185.401C216.643 185.401 216.076 185.26 215.722 184.906L216.218 183.914C216.501 184.126 216.855 184.268 217.28 184.268C217.705 184.268 217.989 184.055 218.272 183.489L218.343 183.276L215.793 177.396H217.28L219.122 181.718L220.964 177.396H222.239Z" fill="#FF725E"/>
<path fill-rule="evenodd" clip-rule="evenodd" d="M222.453 180.301C222.453 178.53 223.799 177.325 225.57 177.325C227.412 177.325 228.687 178.53 228.687 180.301C228.687 182.072 227.412 183.276 225.57 183.276C223.799 183.276 222.453 182.072 222.453 180.301ZM227.341 180.301C227.341 179.167 226.562 178.459 225.57 178.459C224.578 178.459 223.87 179.167 223.87 180.301C223.87 181.434 224.578 182.143 225.57 182.143C226.562 182.143 227.341 181.434 227.341 180.301Z" fill="#FF725E"/>
<path d="M235.7 177.396V183.205H234.354V182.497C233.929 182.993 233.22 183.276 232.512 183.276C230.953 183.276 229.961 182.497 229.961 180.726V177.396H231.307V180.513C231.307 181.576 231.803 182.072 232.724 182.072C233.645 182.072 234.283 181.505 234.283 180.371V177.396H235.7Z" fill="#FF725E"/>
<path d="M237.188 182.426C237.188 182.001 237.613 181.647 238.108 181.647C238.604 181.647 238.959 182.001 238.959 182.426C238.959 182.922 238.604 183.276 238.108 183.276C237.613 183.276 237.188 182.922 237.188 182.426ZM237.258 175.554H238.888L238.604 180.726H237.542L237.258 175.554Z" fill="#FF725E"/>
<path d="M227.843 60.7823L225.789 90.112C225.434 94.8586 221.467 98.6133 216.65 98.6133C211.336 98.6133 207.156 94.0793 207.511 88.8368C207.652 86.9948 207.77 85.3181 207.865 83.8068C203.142 83.0511 200.757 80.3118 200.71 75.5888C200.639 71.4798 201.347 62.1992 201.985 55.0438C202.339 50.2264 206.377 46.5425 211.195 46.5425H215.516C222.884 46.9675 228.481 53.4144 227.843 60.7823Z" fill="#FFBE9D"/>
<path d="M207.862 83.8069C210.838 83.9486 213.908 83.0276 217.072 81.0439C215.561 84.4917 212.444 86.0031 207.721 85.578L207.862 83.8069Z" fill="#EB996E"/>
<path d="M203.676 61.2796C203.959 60.9962 204.597 60.7837 205.234 60.7837C205.943 60.7837 206.509 60.9962 206.864 61.2796C207.218 61.4921 207.289 61.7755 207.289 61.8464C207.147 61.9172 206.368 61.4213 205.234 61.4213C204.172 61.4213 203.392 61.9881 203.251 61.8464C203.18 61.7755 203.321 61.563 203.676 61.2796Z" fill="#263238"/>
<path d="M214.025 63.9706C214.592 63.9706 215.017 64.4665 215.017 64.9624C215.017 65.5292 214.521 65.8834 213.954 65.8834C213.387 65.8834 212.962 65.3875 212.962 64.8916C213.033 64.3248 213.458 63.8998 214.025 63.9706Z" fill="#263238"/>
<path d="M204.317 63.9706C204.883 63.9706 205.308 64.4665 205.308 64.9624C205.238 65.5292 204.812 65.8834 204.246 65.8834C203.679 65.8834 203.254 65.3875 203.254 64.8916C203.254 64.3248 203.75 63.8998 204.317 63.9706Z" fill="#263238"/>
<path d="M214.164 61.4266C214.518 61.1432 215.085 60.9307 215.794 60.9307C216.431 60.9307 217.069 61.1432 217.352 61.4266C217.707 61.6391 217.848 61.9225 217.777 61.9933C217.707 62.135 216.856 61.5683 215.794 61.5683C214.731 61.5683 213.952 62.135 213.81 61.9933C213.739 61.9225 213.881 61.71 214.164 61.4266Z" fill="#263238"/>
<path d="M208.145 70.4935C208.003 70.4226 207.861 70.4226 207.649 70.4226C207.507 70.3518 207.295 70.2101 207.224 69.9976C207.082 69.5725 207.224 69.2183 207.365 68.864C207.602 68.2028 207.861 67.4944 208.145 66.7387C209.278 63.7632 210.341 61.3545 210.412 61.3545C210.553 61.4253 209.703 63.9049 208.57 66.9512C208.286 67.6597 208.027 68.3681 207.79 69.0766C207.649 69.3599 207.507 69.6433 207.578 69.8559C207.649 70.0684 207.861 70.1392 208.145 70.1392C209.278 70.2809 209.916 70.4226 209.916 70.4935C209.916 70.4935 209.207 70.4935 208.145 70.4935Z" fill="#263238"/>
<path d="M213.313 71.9761C213.242 72.472 213.03 73.1804 212.392 73.6763C211.755 74.1723 210.975 74.3848 210.48 74.3139C209.913 74.3139 209.629 74.1722 209.629 74.1014C209.7 73.9597 210.905 74.1014 211.967 73.2513C212.959 72.4011 212.959 71.1968 213.101 71.1968C213.242 71.1968 213.313 71.4801 213.313 71.9761Z" fill="#263238"/>
<path d="M214.521 57.457C215.017 57.3153 215.726 57.1736 216.505 57.2444C217.214 57.3153 217.922 57.5986 218.347 57.882C218.701 58.1654 218.914 58.4488 218.843 58.5905C218.63 58.8739 217.639 58.4488 216.363 58.3779C215.088 58.1654 213.955 58.3071 213.884 58.0237C213.813 57.882 214.096 57.6695 214.521 57.457Z" fill="#263238"/>
<path d="M203.468 57.9501C203.752 57.6667 204.318 57.4541 204.956 57.3833C205.523 57.3833 206.09 57.5958 206.444 57.8084C206.727 58.0917 206.869 58.3043 206.798 58.446C206.656 58.6585 205.877 58.446 204.956 58.5168C204.035 58.5168 203.327 58.8002 203.114 58.5168C203.043 58.446 203.114 58.1626 203.468 57.9501Z" fill="#263238"/>
<path d="M225.425 66.0952C225.567 66.0244 230.313 64.6783 230.172 69.4957C229.959 74.384 225.142 73.1797 225.142 73.038C225.142 72.9435 225.236 70.6293 225.425 66.0952Z" fill="#FFBE9D"/>
<path d="M226.709 71.268C226.709 71.268 226.78 71.3388 226.922 71.4097C227.063 71.4805 227.276 71.5514 227.559 71.4097C228.055 71.268 228.551 70.4887 228.551 69.5677C228.622 69.1427 228.551 68.7176 228.409 68.3634C228.268 68.0091 227.984 67.7966 227.772 67.7258C227.488 67.6549 227.347 67.7966 227.276 67.9383C227.205 68.08 227.205 68.1508 227.205 68.1508C227.205 68.1508 227.063 68.08 227.134 67.8675C227.134 67.773 227.205 67.6785 227.347 67.5841C227.488 67.5132 227.63 67.4424 227.772 67.5132C228.197 67.5132 228.48 67.8674 228.693 68.2925C228.834 68.6467 228.976 69.1427 228.905 69.6386C228.834 70.6304 228.338 71.4805 227.63 71.6931C227.276 71.7639 226.992 71.6222 226.851 71.5514C226.709 71.4097 226.709 71.268 226.709 71.268Z" fill="#EB996E"/>
<path d="M228.121 65.9537C227.413 65.7412 226.138 66.4496 225.783 67.1581C225.5 67.7957 225.429 68.6458 225.075 69.2834C224.792 69.9918 224.083 70.6294 223.304 70.4878C222.808 70.3461 222.454 69.8501 222.312 69.3542C222.17 68.8583 222.241 68.2916 222.312 67.7957C222.595 65.5286 223.091 63.2616 223.162 60.9946C223.233 58.7275 222.95 56.3188 221.745 54.406C220.541 52.4224 218.345 51.0055 216.078 51.218C214.519 51.3597 213.173 52.139 211.685 52.3515C209.914 52.564 208.001 51.9264 206.726 50.6512C206.632 50.5568 206.325 50.3442 205.805 50.0136C205.805 49.8719 205.947 48.8801 206.301 48.5259C209.277 45.763 214.661 44.9837 218.557 45.9755C222.525 46.9673 226.208 49.7303 227.838 53.4142C229.538 57.0981 229.042 62.1989 228.121 65.9537Z" fill="#263238"/>
<path d="M200.491 54.054C201.908 51.787 204.741 50.6535 207.434 50.7243C210.126 50.866 215.226 51.8578 217.352 53.4873C217.564 53.6998 217.848 54.054 217.706 54.3374C217.564 54.4791 217.281 54.5499 217.068 54.4791C215.439 54.4791 211.33 55.1167 209.771 55.6126C208.213 56.0377 206.654 56.4627 205.025 56.2502C203.395 56.1085 201.837 55.2584 201.199 53.7706" fill="#263238"/>
<path d="M220.044 45.1281C228.9 47.891 229.75 56.4632 229.75 57.8801C229.75 59.3443 229.372 61.2098 228.616 63.4769C223.374 52.921 213.314 51.079 207.15 51.575C205.025 51.7639 203.254 52.5668 201.837 53.9837C205.096 44.7266 211.165 41.7748 220.044 45.1281Z" fill="#FF725E"/>
<g opacity="0.4">
<g opacity="0.4">
<g opacity="0.4">
<path opacity="0.4" d="M220.044 45.1281C228.9 47.891 229.75 56.4632 229.75 57.8801C229.75 59.3443 229.372 61.2098 228.616 63.4769C223.657 53.5586 213.243 51.0082 207.788 51.2916C205.237 51.386 203.254 52.2834 201.837 53.9837C205.096 44.7266 211.165 41.7748 220.044 45.1281Z" fill="black"/>
</g>
</g>
</g>
<path d="M207.293 51.8581C203.656 52.3304 201.838 53.7001 201.838 55.9671C199.759 54.8809 198.225 53.9835 197.233 53.275C195.674 52.1415 192.415 49.3077 192.911 47.4658C193.265 45.978 194.682 44.9862 196.17 44.7028C197.729 44.4903 199.216 44.8445 200.704 45.1987C205.592 46.474 212.606 49.166 216.928 51.7873C221.178 54.4794 225.145 57.5257 227.767 61.9889C228.05 62.2015 214.731 50.9372 207.293 51.8581Z" fill="#FF725E"/>
<path d="M217.919 48.6698C217.848 48.8115 215.794 47.3946 212.96 46.757C210.055 46.0485 207.646 46.3319 207.646 46.1902C207.576 46.1194 208.213 46.0485 209.205 45.9777C210.197 45.9068 211.543 46.0485 213.031 46.4027C214.448 46.757 215.723 47.3237 216.573 47.7488C217.423 48.2447 217.919 48.6698 217.919 48.6698Z" fill="white"/>
<path d="M254.545 164.288C254.545 164.359 236.338 164.43 214.022 164.43C191.635 164.43 173.499 164.359 173.499 164.288C173.499 164.147 191.635 164.076 214.022 164.076C236.338 164.076 254.545 164.147 254.545 164.288Z" fill="#263238"/>
<path d="M186.889 117.531C176.64 122.348 170.618 124.875 168.824 125.111C166.131 125.465 163.864 123.553 160.464 119.939C158.15 117.531 153.923 112.761 147.783 105.629L152.742 97.8359L168.894 111.013L179.379 106.337C181.977 106.621 184.48 110.352 186.889 117.531Z" fill="#FFBE9D"/>
<path d="M135.031 91.1768C136.353 92.2158 137.463 92.6881 138.361 92.5937C139.707 92.5228 144.737 92.452 145.091 92.5228C145.374 92.5228 147.145 93.4202 150.404 95.2149L154.017 98.6863L148.35 106.55C147.736 105.794 147.216 105.464 146.791 105.558C146.154 105.629 138.361 104.921 137.227 104.566C136.023 104.141 134.535 103.929 134.181 103.22C133.756 102.512 133.685 101.945 134.748 101.024C133.803 100.316 133.685 99.4892 134.393 98.5446C133.307 97.7889 132.953 97.0332 133.331 96.2776C132.717 96.0414 132.363 95.7344 132.268 95.3566C132.174 94.9315 132.197 94.3175 132.339 93.5146L134.677 92.8062C134.205 92.2394 134.323 91.6963 135.031 91.1768Z" fill="#FFBE9D"/>
<path d="M134.11 92.9474C134.11 92.9474 134.181 92.8766 134.394 92.8766C134.606 92.8057 134.89 92.6641 135.244 92.6641C135.669 92.6641 136.094 92.8057 136.519 93.16C136.944 93.5142 137.228 94.1518 137.015 94.7894C136.873 95.0728 136.661 95.3562 136.377 95.427C136.094 95.5687 135.882 95.5687 135.598 95.6395C135.173 95.734 134.772 95.8285 134.394 95.9229C133.685 96.0646 133.189 96.1354 133.189 96.0646C133.189 95.9938 133.615 95.8521 134.323 95.6395C134.701 95.5451 135.102 95.4506 135.527 95.3562C136.023 95.2145 136.519 95.0728 136.661 94.6477C136.803 94.2226 136.661 93.7267 136.307 93.4433C135.952 93.16 135.598 92.9474 135.244 92.9474C134.961 92.9474 134.606 93.0183 134.394 93.0183C134.252 93.0183 134.11 92.9474 134.11 92.9474Z" fill="#EB996E"/>
<path d="M137.015 95.0022C137.015 94.9549 137.204 94.9077 137.582 94.8605C137.936 94.7896 138.432 94.6479 139.07 94.6479C139.707 94.6479 140.557 94.7188 141.337 95.2147C141.691 95.4981 142.045 95.8523 142.187 96.4191C142.258 96.915 142.116 97.5526 141.549 97.836C141.053 98.1193 140.557 98.1193 140.132 98.1193C139.66 98.1666 139.211 98.2138 138.786 98.261C137.983 98.3083 137.228 98.3555 136.519 98.4027C135.244 98.4736 134.465 98.4736 134.465 98.4736C134.465 98.4027 135.244 98.261 136.519 98.1193C137.181 98.0721 137.936 98.0013 138.786 97.9068C139.211 97.8596 139.637 97.8124 140.062 97.7651C140.557 97.7651 141.053 97.7651 141.408 97.5526C141.762 97.3401 141.904 96.8441 141.833 96.4899C141.691 96.0648 141.408 95.7815 141.124 95.4981C140.487 95.073 139.707 94.9313 139.07 94.9313C137.795 94.9313 137.015 95.073 137.015 95.0022Z" fill="#EB996E"/>
<path d="M141.761 97.8364C141.832 97.8364 141.974 97.8364 142.115 98.049C142.257 98.2615 142.328 98.6157 142.257 99.0408C142.115 99.4659 141.69 99.8909 141.123 100.103C140.557 100.245 139.99 100.245 139.352 100.316C136.944 100.387 135.031 100.883 134.96 100.812C134.96 100.67 136.873 100.033 139.352 99.9618C139.99 99.8909 140.557 99.8909 140.982 99.7492C141.478 99.6076 141.832 99.3242 141.974 98.9699C142.115 98.6157 142.044 98.3323 141.974 98.1198C141.903 97.9073 141.761 97.8364 141.761 97.8364Z" fill="#EB996E"/>
<path d="M149.838 99.1818C149.838 99.2527 149.484 99.3944 148.775 99.6069C148.138 99.7486 147.217 99.8194 146.154 99.6778C145.162 99.5361 144.241 99.2527 143.674 98.8985C143.037 98.5442 142.753 98.2609 142.753 98.2609C142.824 98.1192 144.241 99.111 146.225 99.3235C148.208 99.6069 149.838 99.111 149.838 99.1818Z" fill="#EB996E"/>
<path d="M141.761 95.5696C141.832 95.4987 142.328 95.6404 142.895 95.5696C143.532 95.4987 144.028 95.2153 144.099 95.2862C144.17 95.357 143.745 95.8529 142.966 95.9238C142.257 96.0655 141.691 95.6404 141.761 95.5696Z" fill="#EB996E"/>
<path d="M141.194 103.291C141.123 103.291 141.336 102.228 142.257 101.378C143.178 100.457 144.311 100.316 144.311 100.457C144.311 100.528 143.39 100.812 142.54 101.662C141.69 102.441 141.336 103.362 141.194 103.291Z" fill="#EB996E"/>
<path d="M124.404 123.695H155.151L160.889 168.681H118.382L124.404 123.695Z" fill="#F5AD49"/>
<path d="M155.151 123.695H158.693L169.249 168.681H160.889L155.151 123.695Z" fill="#DF9733"/>
<path d="M138.006 100.316C138.006 100.245 138.077 100.245 138.219 100.316C138.361 100.316 138.573 100.458 138.786 100.67C138.927 100.953 138.998 101.378 138.856 101.733C138.715 102.087 138.431 102.441 138.006 102.654C137.51 102.937 136.944 102.937 136.448 102.937L136.589 102.866C136.164 103.646 135.739 103.929 135.668 103.929C135.598 103.858 136.023 103.433 136.306 102.725L136.377 102.654H136.448C136.873 102.583 137.369 102.512 137.865 102.299C138.148 102.158 138.431 101.874 138.573 101.591C138.644 101.308 138.644 101.024 138.573 100.812C138.361 100.387 137.936 100.316 138.006 100.316Z" fill="#EB996E"/>
<path d="M132.197 125.678C132.197 125.678 132.197 125.324 132.268 124.757C132.338 124.19 132.48 123.34 132.622 122.278C132.976 120.223 133.543 117.319 134.18 114.201C134.889 111.084 135.456 108.25 135.881 106.196C136.07 105.204 136.211 104.378 136.306 103.716C136.447 103.15 136.518 102.866 136.518 102.866C136.589 102.866 136.518 103.15 136.447 103.787C136.377 104.354 136.306 105.204 136.093 106.196C135.81 108.321 135.243 111.155 134.535 114.272C133.897 117.46 133.259 120.294 132.905 122.348C132.716 123.293 132.551 124.096 132.409 124.757C132.338 125.324 132.268 125.678 132.197 125.678Z" fill="#F5AD49"/>
<path d="M148.491 126.104C148.42 126.104 148.279 125.749 148.137 125.041C147.901 124.332 147.617 123.388 147.287 122.207C146.649 119.798 145.799 116.469 144.807 112.785C143.886 109.03 143.036 105.7 142.469 103.292C142.186 102.111 141.95 101.143 141.761 100.387C141.619 99.6784 141.548 99.3242 141.548 99.3242C141.619 99.3242 141.69 99.6784 141.903 100.387C142.091 101.095 142.351 102.04 142.682 103.221C143.319 105.629 144.24 108.959 145.161 112.643C146.153 116.398 147.003 119.727 147.57 122.136C147.854 123.317 148.09 124.285 148.279 125.041C148.42 125.749 148.491 126.104 148.491 126.104Z" fill="#F5AD49"/>
<path d="M169.249 168.681C169.178 168.751 168.611 168.326 167.761 167.689C166.84 166.98 165.636 166.059 164.361 164.926C164.124 164.784 163.888 164.619 163.652 164.43L163.936 164.359C163.085 165.634 162.377 166.697 161.81 167.476C161.243 168.256 160.889 168.751 160.889 168.681C160.818 168.681 161.102 168.185 161.598 167.335C162.094 166.555 162.802 165.422 163.652 164.147L163.723 164.005L163.865 164.147C164.101 164.288 164.337 164.454 164.573 164.643C165.919 165.776 167.053 166.697 167.903 167.476C168.753 168.185 169.249 168.681 169.249 168.681Z" fill="white"/>
<path d="M157.063 123.694C157.134 123.694 158.693 132.762 160.606 143.956C162.448 155.149 163.865 164.288 163.794 164.288C163.652 164.288 162.093 155.22 160.251 144.027C158.339 132.833 156.922 123.694 157.063 123.694Z" fill="white"/>
<path d="M156.992 136.446C156.803 136.635 156.544 136.871 156.213 137.155C155.788 137.58 155.009 138.147 153.875 138.713C152.812 139.351 151.396 139.918 149.624 140.201C147.924 140.485 145.87 140.555 143.744 139.847C142.682 139.493 141.619 138.926 140.769 138.076C139.919 137.155 139.21 136.021 139.139 134.675C138.998 133.329 139.564 131.842 140.627 130.921C141.194 130.495 141.902 130.141 142.682 130.141C143.39 130.07 144.169 130.212 144.807 130.566C145.515 130.921 146.082 131.416 146.578 131.983C147.003 132.621 147.357 133.329 147.57 134.109C147.924 135.596 147.853 137.226 147.57 138.784C146.932 141.901 145.232 144.948 142.682 147.286C141.477 148.419 140.06 149.34 138.502 149.978C136.943 150.615 135.314 150.899 133.684 150.828C132.055 150.686 130.567 150.049 129.292 149.128C128.088 148.136 127.237 146.79 126.954 145.302C126.742 143.814 127.025 142.256 127.804 141.051C128.584 139.918 129.93 139.068 131.276 139.209C131.984 139.28 132.622 139.634 133.047 140.13C133.472 140.626 133.684 141.264 133.826 141.831C134.109 143.035 133.826 144.239 133.401 145.302C132.551 147.356 130.992 148.844 129.505 149.694C127.946 150.545 126.458 150.97 125.254 151.253C124.049 151.465 123.058 151.536 122.42 151.607C122.089 151.607 121.853 151.607 121.712 151.607C121.523 151.607 121.428 151.607 121.428 151.607C121.428 151.607 121.523 151.607 121.712 151.607C121.901 151.56 122.137 151.536 122.42 151.536C123.058 151.466 124.049 151.324 125.254 151.111C126.387 150.828 127.875 150.403 129.363 149.553C130.851 148.632 132.338 147.215 133.188 145.231C133.543 144.168 133.755 143.035 133.543 141.901C133.401 141.335 133.188 140.768 132.834 140.343C132.409 139.847 131.913 139.564 131.276 139.493C130.071 139.422 128.796 140.13 128.088 141.264C127.308 142.397 127.096 143.814 127.308 145.231C127.521 146.648 128.371 147.923 129.505 148.844C130.709 149.765 132.197 150.332 133.755 150.403C136.872 150.686 140.06 149.198 142.469 147.002C144.949 144.735 146.578 141.76 147.216 138.713C147.499 137.226 147.57 135.667 147.216 134.179C147.003 133.471 146.72 132.762 146.295 132.196C145.87 131.629 145.303 131.204 144.665 130.85C144.028 130.566 143.319 130.354 142.682 130.425C142.044 130.495 141.336 130.779 140.84 131.204C139.848 132.054 139.352 133.4 139.423 134.604C139.494 135.88 140.131 137.013 140.981 137.863C141.761 138.713 142.752 139.28 143.815 139.634C145.87 140.272 147.924 140.272 149.624 139.989C151.325 139.705 152.742 139.209 153.804 138.643C154.938 138.076 155.717 137.509 156.213 137.084C156.426 136.871 156.638 136.73 156.78 136.588C156.874 136.494 156.945 136.446 156.992 136.446Z" fill="white"/>
<path d="M197.445 112.005L186.889 118.168L178.742 105.416C188.377 97.2454 193.785 92.9475 194.966 92.5225H200.491L197.445 112.005Z" fill="#FAC963"/>
<path d="M194.965 92.5225L207.222 87.8468C208.402 90.3499 210.811 91.3418 214.448 90.8222C218.084 90.3027 222.052 88.7441 226.35 86.1465C232.631 89.7359 236.693 92.2864 238.535 93.7977C240.377 95.2618 239.621 111.627 236.268 142.893L235.064 156.92C235.725 157.393 236.055 158.432 236.055 160.037C236.055 161.643 236.079 162.989 236.126 164.076H187.598C186.795 160.344 186.677 157.723 187.243 156.212C187.857 154.748 188.66 153.26 189.652 151.749L190.431 130.07L190.644 110.8L194.965 92.5225Z" fill="#F5AD49"/>
<path d="M238.535 93.7974C241.132 94.5058 242.833 96.7965 243.636 100.669C244.391 104.542 244.698 113.894 244.557 128.724L222.666 123.977C224.649 117.743 225.641 114.413 225.641 113.988C225.641 113.35 231.663 98.4023 231.875 98.048C232.017 97.8591 234.237 96.4422 238.535 93.7974Z" fill="#FAC963"/>
<path d="M190.29 101.661C190.432 101.661 190.574 105.558 190.644 110.304C190.715 115.122 190.644 118.947 190.574 118.947C190.432 118.947 190.29 115.122 190.219 110.304C190.148 105.558 190.219 101.661 190.29 101.661Z" fill="#263238"/>
<path d="M228.404 103.716C228.404 103.716 228.404 104 228.333 104.496C228.262 104.992 228.12 105.7 227.908 106.55C227.624 108.321 227.057 110.73 226.349 113.351C225.641 115.972 224.932 118.31 224.365 120.011C224.153 120.861 223.869 121.498 223.728 121.994C223.515 122.49 223.444 122.703 223.374 122.703C223.374 122.703 223.444 122.419 223.586 121.923C223.728 121.404 223.917 120.743 224.153 119.94C224.649 118.239 225.286 115.831 225.995 113.28C226.703 110.659 227.27 108.25 227.695 106.55C227.884 105.747 228.049 105.062 228.191 104.496C228.262 104 228.333 103.716 228.404 103.716Z" fill="#263238"/>
<path d="M226.349 103.291C226.42 103.291 226.42 105.274 226.278 107.754C226.137 110.163 225.995 112.146 225.853 112.146C225.782 112.146 225.782 110.163 225.924 107.683C226.066 105.274 226.207 103.22 226.349 103.291Z" fill="#263238"/>
<path d="M220.894 110.588C220.894 110.659 218.769 110.801 216.218 110.801C213.597 110.801 211.472 110.659 211.472 110.588C211.472 110.517 213.597 110.375 216.218 110.375C218.769 110.375 220.894 110.517 220.894 110.588Z" fill="white"/>
<path d="M195.816 142.468L220.045 139.493L223.799 124.19L237.402 127.166C233.812 141.335 230.175 149.104 226.492 150.474C222.808 151.843 211.874 151.371 193.69 149.057L195.816 142.468Z" fill="#FFBE9D"/>
<path d="M198.154 142.327C198.39 142.752 198.39 143.862 198.154 145.657C197.917 147.498 197.492 148.75 196.878 149.411C193.808 149.033 192.321 148.868 192.415 148.915C192.557 148.986 190.148 148.49 188.944 148.632C188.141 148.726 186.771 149.293 184.835 150.332L177.184 149.553C173.452 148.231 171.492 147.333 171.303 146.861C171.162 146.389 171.587 145.987 172.579 145.657C172.956 145.279 174.161 145.373 176.192 145.94C176.475 145.231 178.246 145.019 181.505 145.302L188.023 141.548C188.377 140.981 189.652 140.697 190.786 140.91C191.541 141.004 192.887 141.453 194.824 142.256L198.154 142.327Z" fill="#FFBE9D"/>
<path d="M191.565 145.727C191.565 145.798 191.352 145.798 191.139 145.585C190.856 145.373 190.573 144.947 190.218 144.664C189.935 144.522 189.652 144.452 189.368 144.381C189.014 144.31 188.589 144.239 188.306 143.956C188.022 143.601 187.81 143.247 187.739 142.751C187.668 142.326 187.81 141.83 188.164 141.476C188.802 140.768 189.793 140.626 190.573 140.768C191.352 140.98 191.99 141.334 192.415 141.689C192.84 142.114 193.194 142.468 193.406 142.68C193.595 142.917 193.69 143.058 193.69 143.106C193.619 143.106 193.123 142.61 192.273 141.901C191.777 141.618 191.21 141.264 190.502 141.122C189.864 140.98 188.943 141.122 188.447 141.689C187.881 142.255 188.093 143.247 188.518 143.672C189.014 144.168 189.793 144.027 190.36 144.452C190.856 144.806 190.998 145.231 191.21 145.443C191.423 145.656 191.565 145.727 191.565 145.727Z" fill="#EB996E"/>
<path d="M187.527 144.523C187.527 144.523 187.173 144.523 186.677 144.735C186.11 144.948 185.472 145.515 184.551 145.727C183.63 145.94 182.78 145.656 182.213 145.586C181.647 145.444 181.292 145.515 181.292 145.444C181.292 145.373 181.647 145.302 182.284 145.302C182.851 145.302 183.701 145.586 184.48 145.373C185.331 145.161 185.968 144.665 186.606 144.523C187.173 144.31 187.598 144.452 187.527 144.523Z" fill="#EB996E"/>
<path d="M187.739 147.569C187.739 147.569 187.574 147.664 187.243 147.853C186.96 147.994 186.534 148.207 185.897 148.349C184.763 148.703 183.063 148.774 181.221 148.632C180.3 148.49 179.45 148.349 178.671 148.207C177.891 148.136 177.183 148.065 176.545 147.782C176.262 147.64 176.049 147.428 175.979 147.144C175.837 146.932 175.837 146.719 175.837 146.507C175.908 146.152 176.191 146.082 176.191 146.082C176.191 146.082 176.049 146.223 175.979 146.577C175.979 146.861 176.12 147.357 176.687 147.569C177.183 147.782 177.962 147.782 178.742 147.924C179.497 148.018 180.347 148.136 181.292 148.278C183.063 148.419 184.693 148.349 185.897 148.065C187.03 147.853 187.668 147.498 187.739 147.569Z" fill="#EB996E"/>
<path d="M224.012 145.727C223.941 145.727 223.516 144.239 222.454 142.681C221.391 141.122 220.187 140.201 220.257 140.13C220.257 140.06 221.674 140.839 222.737 142.468C223.87 144.098 224.154 145.727 224.012 145.727Z" fill="#EB996E"/>
<path d="M55.7557 221.957L61.9192 229.749L54.0555 277.924L42.5786 276.649L43.4996 229.395L55.7557 221.957Z" fill="#FFBE9D"/>
<path opacity="0.5" d="M55.4733 275.586L55.4025 276.365C64.0928 279.954 68.4851 282.576 68.5796 284.229L42.5796 283.804V275.161C46.4052 277.003 50.9393 277.286 55.4733 275.586Z" fill="#455A64"/>
<path d="M42.5796 283.804L42.7213 281.75L67.5878 282.884C68.3434 283.261 68.674 283.71 68.5796 284.23L42.5796 283.804Z" fill="#7E949E"/>
<path d="M37.3359 91.1769C36.415 93.2314 35.3523 95.1443 34.8564 97.2696C33.8646 101.166 34.6438 105.275 34.0062 109.242C33.7937 110.588 33.3686 112.005 32.4477 113.068C31.5267 114.06 29.9681 114.627 28.6929 114.131C27.4177 113.635 26.7092 112.289 26.4967 111.013C26.2842 109.667 26.355 108.321 26.2842 107.046C26.0716 105.346 25.5757 103.646 25.5049 101.945C25.5049 100.245 26.1425 98.3323 27.7011 97.6238C25.7174 94.6483 26.7801 90.0434 29.8973 88.2015C28.9054 85.6511 30.2515 82.3922 32.8019 81.1878L35.2106 79.8418C37.2651 80.4794 38.6111 82.6756 38.7528 84.8718C38.9654 87.068 38.2569 89.1933 37.3359 91.1769Z" fill="#263238"/>
<path d="M37.6196 84.5887C34.9275 84.5887 32.2354 83.0302 30.9602 80.6214C29.685 78.2127 29.7558 75.1664 31.2436 72.8285C31.4561 72.4743 31.7395 72.1909 32.0937 71.9784C32.9438 71.695 33.7231 72.3326 34.3607 72.9702C35.8721 74.3871 37.3598 75.8276 38.824 77.2917" fill="#263238"/>
<path d="M37.7616 78.9921C34.3611 77.4335 31.7398 73.6079 30.748 70.0657C29.7562 66.4526 30.8897 59.1556 31.8815 55.6133C33.0859 51.221 34.857 56.8177 36.3447 57.3136C37.2657 57.597 37.8324 58.3763 38.1158 59.2973C38.3992 60.2183 38.3992 61.1392 38.3284 62.0602C38.1394 67.7278 37.9505 73.3717 37.7616 78.9921Z" fill="#263238"/>
<path d="M46.3338 43.2863C52.0014 40.3108 56.4646 42.0819 58.6608 43.7822C60.8569 45.4825 62.203 48.1037 63.0531 50.7958C63.8324 53.4879 64.1866 56.2508 64.8242 58.9429C65.391 61.21 65.391 61.3517 65.6744 63.6895C66.0286 66.0274 65.8869 70.1364 64.7534 72.1909C63.6199 74.1037 62.3447 75.8748 60.5027 77.0792C59.7943 77.5043 59.015 78.0002 58.2357 77.7168C57.6689 77.5751 57.3147 77.0792 56.9605 76.5833C50.8678 67.8694 46.0504 58.2345 42.7207 48.1037" fill="#263238"/>
<path d="M40.0997 49.8027L49.8054 45.9062L52.3559 46.1896C58.1651 46.1896 62.1324 52.4948 62.2033 57.0997C62.2741 62.2714 62.1324 68.5765 61.3531 72.4022C60.2668 77.503 57.7164 80.2895 53.7019 80.7618C53.7019 80.7618 53.7727 82.8872 53.8436 85.4376C53.9853 90.0425 50.2305 93.7973 45.5548 93.7264C41.1624 93.6556 37.691 90.0425 37.6202 85.6501L37.5493 52.424C37.5493 51.0071 38.6828 49.8736 40.0997 49.8027Z" fill="#FFBE9D"/>
<path d="M59.718 62.2721C59.6471 62.768 59.2221 63.1931 58.6553 63.1931C58.1594 63.1931 57.6635 62.768 57.7343 62.2721C57.7343 61.7053 58.1594 61.2803 58.7261 61.2803C59.2929 61.2803 59.718 61.7053 59.718 62.2721Z" fill="#263238"/>
<path d="M60.1451 59.789C60.0034 59.8599 59.295 59.2931 58.2323 59.2222C57.1697 59.1514 56.3195 59.7182 56.2487 59.5765C56.1778 59.5056 56.3195 59.2931 56.6737 59.0097C57.028 58.7972 57.5947 58.5847 58.3032 58.6555C58.9408 58.6555 59.5075 58.9389 59.7909 59.2222C60.0743 59.4348 60.216 59.7182 60.1451 59.789Z" fill="#263238"/>
<path d="M53.6328 68.0798C53.6328 68.0798 54.2704 67.9381 55.404 67.8672C55.6873 67.8672 55.8999 67.7964 55.9707 67.6547C56.0416 67.4422 55.9707 67.1588 55.829 66.8046C55.5929 66.1434 55.3567 65.4585 55.1206 64.7501C54.1288 61.7037 53.4912 59.2242 53.562 59.2242C53.7037 59.1533 54.6247 61.5621 55.5456 64.6084C55.7818 65.3168 56.0179 66.0253 56.2541 66.7337C56.3249 67.0171 56.4666 67.3713 56.3249 67.7964C56.2541 68.0089 56.0416 68.1506 55.829 68.1506C55.6873 68.2215 55.5456 68.2215 55.404 68.2215C54.2704 68.2215 53.6328 68.1506 53.6328 68.0798Z" fill="#263238"/>
<path d="M53.7691 82.678C48.5738 82.8669 45.1496 81.143 43.4966 77.5063C46.8499 79.7261 50.2504 80.8124 53.6982 80.7652L53.7691 82.678Z" fill="#EB996E"/>
<path d="M53.0631 71.0566C52.9923 71.1983 52.9215 71.2692 52.7798 71.34C52.3547 71.6942 51.8588 72.0485 51.3629 72.1193C50.7961 72.261 50.2294 72.0485 49.8751 71.5525C49.6626 71.1275 49.6626 70.4899 49.946 70.1357C50.3002 69.7106 50.7253 69.498 51.2212 69.498C51.9296 69.498 52.5672 69.7814 52.9215 70.419C53.0631 70.5607 53.134 70.9149 53.0631 71.0566Z" fill="#EB996E"/>
<path d="M50.442 68.7212C50.6546 68.7212 50.5837 69.8547 51.5047 70.7049C52.4965 71.6259 53.7009 71.555 53.7009 71.6967C53.7009 71.7675 53.4175 71.9092 52.9216 71.9092C52.4257 71.9092 51.6464 71.6967 51.0796 71.1299C50.5129 70.634 50.3003 69.9256 50.2295 69.4297C50.2295 68.9338 50.3712 68.6504 50.442 68.7212Z" fill="#263238"/>
<path d="M60.0082 56.8175C59.7957 57.03 59.0873 56.7467 58.1663 56.6758C57.3161 56.605 56.5368 56.7467 56.3952 56.4633C56.3243 56.3924 56.466 56.1091 56.8202 55.8965C57.1036 55.684 57.6704 55.5423 58.308 55.6132C58.8747 55.6132 59.3706 55.8965 59.7249 56.1799C60.0082 56.3924 60.0791 56.6758 60.0082 56.8175Z" fill="#263238"/>
<path d="M48.9577 61.2803C49.5244 61.3511 49.9495 61.7762 49.8787 62.3429C49.8787 62.8389 49.3828 63.2639 48.8868 63.1931C48.3201 63.1222 47.895 62.6972 47.895 62.2013C47.9659 61.6345 48.3909 61.2803 48.9577 61.2803Z" fill="#263238"/>
<path d="M46.3349 59.0853C46.6182 58.8727 47.185 58.5894 47.8226 58.5894C48.5311 58.6602 49.0978 58.8727 49.452 59.1561C49.7354 59.3686 49.8771 59.5812 49.8063 59.652C49.7354 59.7937 48.9561 59.227 47.8935 59.227C46.7599 59.227 46.0515 59.7937 45.9098 59.652C45.839 59.5812 45.9806 59.3686 46.3349 59.0853Z" fill="#263238"/>
<path d="M46.6905 55.6145C47.0447 55.402 47.5407 55.1895 48.1783 55.1895C48.745 55.1895 49.3118 55.3311 49.666 55.6145C49.9494 55.8271 50.0911 56.0396 50.0202 56.1813C49.8077 56.4647 49.0992 56.2521 48.1783 56.2521C47.3281 56.2521 46.5488 56.5355 46.4071 56.2521C46.2655 56.1104 46.4071 55.8979 46.6905 55.6145Z" fill="#263238"/>
<path d="M49.2382 45.4817C45.4126 50.7242 41.3036 56.6751 37.2654 61.8468C36.557 59.2255 35.9194 55.3999 36.4153 52.7787C36.9112 50.1574 38.2572 47.607 40.3117 46.0484C42.4371 44.419 46.2627 44.0648 48.7423 45.0566L49.2382 45.4817Z" fill="#263238"/>
<path d="M50.5855 42.7176C59.6064 41.4424 63.7154 47.6295 62.9125 61.2789C62.0151 56.2726 58.0478 51.1245 51.0106 45.8348L48.8853 45.4806L50.5855 42.7176Z" fill="#263238"/>
<path d="M37.8294 71.266C37.8294 71.4077 32.4452 72.187 32.7286 66.9445C32.9411 63.1188 35.7041 63.1188 37.1918 63.4022C37.7586 63.5439 38.3962 64.9608 38.3253 65.5276C38.2545 67.5112 37.8294 71.1243 37.8294 71.266Z" fill="#FFBE9D"/>
<path d="M36.8431 69.4261C36.7014 69.5678 36.3472 69.6386 35.9929 69.4969C35.2845 69.2844 34.7886 68.2218 34.7886 67.1591C34.7886 66.6632 34.9303 66.1673 35.2136 65.7422C35.4262 65.3171 35.7804 64.9629 36.2055 64.9629C36.418 64.9629 36.5597 65.0337 36.7014 65.1046C36.8431 65.2463 36.8431 65.388 36.9139 65.4588C36.9139 65.6713 36.8431 65.813 36.7722 65.7422C36.7722 65.7422 36.8431 65.6713 36.7722 65.5297C36.7014 65.388 36.4888 65.1754 36.2055 65.2463C35.9221 65.2463 35.6387 65.5297 35.497 65.8839C35.2845 66.2381 35.1428 66.734 35.1428 67.1591C35.1428 68.1509 35.5679 69.0719 36.0638 69.2844C36.3472 69.4261 36.6305 69.3553 36.7722 69.2844C36.9139 69.2136 36.9848 69.1427 37.0556 69.2136C37.0556 69.2136 36.9848 69.2844 36.8431 69.4261Z" fill="#EB996E"/>
<path d="M32.1647 52.921C33.5107 49.3079 36.2028 46.3324 39.3908 44.1362C41.0911 42.9319 43.0039 42.0109 45.0584 41.7275C47.1129 41.515 49.3091 42.0817 50.726 43.6403L51.0802 43.9946C48.7423 49.1662 47.1129 53.5586 44.1374 58.376C43.0039 60.1471 42.5788 66.0981 42.2954 68.2234C41.6815 72.8992 40.0993 76.2525 37.5489 78.2834C29.1892 78.2834 30.8186 56.5341 32.1647 52.921Z" fill="#263238"/>
<path d="M36.2736 77.4334C36.2028 77.5043 35.8486 77.3626 35.211 77.0792C34.5734 76.7958 33.7941 76.2999 33.0856 75.5206C32.3772 74.7413 31.9521 73.8912 31.7396 73.2536C31.5271 72.616 31.4562 72.2618 31.5271 72.1909C31.5979 72.1909 32.023 73.8204 33.369 75.3081C34.7151 76.7958 36.2736 77.3626 36.2736 77.4334Z" fill="#455A64"/>
<path d="M35.2114 84.3053C35.2114 84.3762 34.1487 84.3053 33.0861 83.526C32.0234 82.6759 31.5983 81.6132 31.6692 81.6132C31.8109 81.5424 32.3068 82.4634 33.2986 83.1718C34.2904 83.9511 35.2822 84.1636 35.2114 84.3053Z" fill="#455A64"/>
<path d="M31.7394 90.7515C31.6686 90.8223 31.1727 90.2556 30.6767 89.5471C30.11 88.8387 29.7558 88.2011 29.8975 88.2011C29.9683 88.1302 30.4642 88.6261 30.9601 89.3346C31.456 90.043 31.8103 90.6806 31.7394 90.7515Z" fill="#455A64"/>
<path d="M29.047 98.7576C28.9053 98.8285 28.5511 98.4743 28.1969 98.0492C27.7718 97.6241 27.5593 97.1991 27.6301 97.1282C27.701 97.0574 28.0552 97.4116 28.4803 97.8367C28.8345 98.2617 29.1179 98.6868 29.047 98.7576Z" fill="#455A64"/>
<path d="M30.606 64.8235C30.606 64.8235 30.9602 64.611 31.5978 64.2567C31.9284 64.0678 32.3298 63.8317 32.8021 63.5483C33.2272 63.3358 33.794 62.9815 34.2899 62.6273C35.4234 61.9189 36.6986 60.9979 38.0446 59.8644C39.3199 58.7309 40.7367 57.3848 42.012 55.8262C43.358 54.2676 44.4207 52.7091 45.3417 51.2213C46.2626 49.7336 46.9711 48.3167 47.5378 47.1123C47.8212 46.5456 48.0338 45.9788 48.1754 45.4829C48.4116 45.0106 48.5769 44.5855 48.6714 44.2077C48.9547 43.4992 49.0964 43.145 49.0964 43.145C49.0964 43.145 49.0256 43.5701 48.813 44.2785C48.7186 44.6091 48.5769 45.0342 48.388 45.5537C48.2463 46.0497 48.0337 46.6164 47.7504 47.254C47.2545 48.4584 46.546 49.8753 45.625 51.4338C44.704 52.9216 43.6414 54.4802 42.2953 56.0387C40.9493 57.5973 39.6032 58.9434 38.2572 60.0769C36.9111 61.2104 35.5651 62.1314 34.4316 62.8398C33.8648 63.1941 33.3689 63.4774 32.873 63.7608C32.4007 63.997 31.9992 64.2095 31.6686 64.3984C31.031 64.6818 30.606 64.8235 30.606 64.8235Z" fill="#455A64"/>
<path d="M43.6408 58.5181C43.6408 58.5181 43.5227 58.6834 43.2865 59.014C43.0032 59.2974 42.5781 59.7224 42.0822 60.2183C41.0195 61.281 39.4609 62.5562 37.5481 63.6897C35.6353 64.8232 33.7225 65.5317 32.3765 66.0276C31.668 66.2401 31.1012 66.3818 30.6762 66.4527C30.2983 66.5471 30.0858 66.5707 30.0386 66.5235C30.0386 66.5235 30.8887 66.2401 32.2348 65.7442C33.5808 65.2483 35.4228 64.469 37.3356 63.3355C39.2484 62.202 40.807 60.9976 41.8696 60.0766C43.0032 59.0848 43.6408 58.4472 43.6408 58.5181Z" fill="#455A64"/>
<path d="M63.336 65.2486C63.2652 65.2486 63.4069 64.8236 63.5486 64.1151C63.6902 63.3358 63.8319 62.2732 63.9028 60.9271C63.9736 58.235 63.4069 54.4802 61.3524 50.938C59.2979 47.3958 56.1807 45.0579 53.8428 43.8535C52.6385 43.2159 51.6466 42.8617 50.8674 42.5783C50.1589 42.3658 49.8047 42.2241 49.8047 42.2241C49.8047 42.2241 49.8991 42.2477 50.0881 42.295C50.3006 42.295 50.584 42.3658 50.9382 42.4367C51.6466 42.6492 52.7093 43.0034 53.9137 43.5702C56.3932 44.7745 59.5104 47.1124 61.7066 50.7255C63.8319 54.3386 64.3279 58.235 64.1153 60.9271C64.0445 62.2732 63.8319 63.4067 63.6902 64.1151C63.5486 64.4694 63.4777 64.7527 63.4069 64.9653C63.3596 65.1542 63.336 65.2486 63.336 65.2486Z" fill="#455A64"/>
<path d="M128.655 113.352C128.23 114.273 127.593 115.123 126.884 115.831C126.459 115.548 126.034 115.265 125.822 114.769C125.609 114.344 125.751 113.493 126.105 113.139" fill="#EB996E"/>
<path d="M125.467 113.068C124.758 113.847 123.979 114.556 123.129 115.052C122.775 114.697 122.491 114.272 122.35 113.776C122.279 113.28 122.562 112.501 122.987 112.218" fill="#EB996E"/>
<path d="M53.1348 88.9102C68.6734 101.095 77.8359 107.401 80.6225 107.826C84.8732 108.392 104.497 106.055 112.573 105.771L113.707 112.572C98.8768 117.579 88.746 120.2 83.3146 120.436C77.9304 120.625 73.7033 119.987 70.6334 118.523L55.4726 103.008L53.1348 88.9102Z" fill="#FFBE9D"/>
<path d="M112.078 105.842C119.02 104.85 123.011 104.637 124.05 105.204C125.137 105.724 127.238 107.282 130.356 109.88C131.395 112.808 131.584 114.343 130.922 114.485C130.261 114.626 129.6 114.154 128.939 113.068L127.593 110.659L121.783 109.242L112.148 110.092L112.078 105.842Z" fill="#FFBE9D"/>
<path d="M110.236 113.21L110.944 109.668L122.35 108.393C123.012 108.912 123.98 109.361 125.255 109.739C127.239 110.235 130.002 110.73 130.568 111.297C131.064 111.793 130.993 112.502 130.568 113.068C130.143 113.635 126.814 113.423 125.184 113.21C123.555 112.927 121.358 114.414 119.446 114.485C117.604 114.556 113.849 112.714 113.707 112.572L110.236 113.21Z" fill="#FFBE9D"/>
<path d="M118.666 108.251C118.666 108.251 118.879 108.227 119.304 108.18C119.658 108.251 120.225 108.251 120.862 108.392C122.279 108.676 124.05 109.384 126.034 110.022C127.026 110.352 127.97 110.588 128.868 110.73C129.293 110.801 129.789 110.872 130.072 111.226C130.426 111.509 130.568 111.934 130.497 112.289C130.497 112.714 130.285 112.997 130.072 113.21C129.789 113.351 129.576 113.422 129.364 113.422C128.938 113.493 128.726 113.351 128.797 113.351C128.797 113.281 129.009 113.351 129.364 113.281C129.718 113.281 130.214 112.926 130.285 112.289C130.285 112.005 130.143 111.651 129.93 111.439C129.647 111.155 129.222 111.084 128.797 111.013C127.876 110.943 126.884 110.73 125.892 110.376C123.909 109.738 122.137 108.959 120.862 108.676C119.516 108.321 118.666 108.321 118.666 108.251Z" fill="#EB996E"/>
<path d="M126.175 110.447C126.105 110.518 125.325 110.234 124.475 109.597C123.625 108.888 123.2 108.18 123.271 108.109C123.342 108.038 123.908 108.676 124.688 109.313C125.467 109.88 126.246 110.305 126.175 110.447Z" fill="#EB996E"/>
<path d="M76.5131 226.419C72.5458 234.849 58.4477 237.046 49.7338 238.817C43.9246 239.998 32.188 243.233 14.524 248.522L11.9736 237.258L33.0853 227.836L76.5131 226.419Z" fill="#FFBE9D"/>
<path opacity="0.5" d="M16.5089 248.736L15.8005 248.877C14.667 258.134 13.3209 263.023 11.7623 263.542L5.24463 238.676L13.5335 236.338C12.7542 240.518 13.6751 244.91 16.5089 248.736Z" fill="#455A64"/>
<path d="M5.24463 238.674L7.29912 238.178L12.7542 262.194C12.6125 263.044 12.2819 263.493 11.7623 263.54L5.24463 238.674Z" fill="#7E949E"/>
<path d="M76.3715 226.702C76.3715 226.843 76.3007 227.056 76.159 227.339C76.0173 227.694 75.6631 228.26 75.1672 228.827C74.1045 230.031 72.3334 231.519 69.9247 233.007C68.7203 233.715 67.3034 234.353 65.7448 234.92C64.1863 235.557 62.486 235.911 60.644 236.337C57.1018 237.258 53.1345 238.32 48.9547 239.383C40.6658 241.579 33.2271 243.563 27.7721 245.05C25.0091 245.688 22.813 246.255 21.3252 246.68C20.5695 246.822 19.9792 246.963 19.5541 247.105C19.129 247.199 18.9165 247.223 18.9165 247.176C18.9165 247.176 19.1054 247.129 19.4833 247.034C19.9083 246.892 20.4987 246.727 21.2544 246.538C22.813 246.113 25.0091 245.476 27.7012 244.767C33.0854 243.279 40.595 241.225 48.8838 239.029C53.0636 237.966 56.9601 236.903 60.5732 236.053C62.4151 235.557 64.1154 235.274 65.674 234.636C67.2326 234.07 68.6495 233.503 69.783 232.794C72.1917 231.307 74.0337 229.89 75.0255 228.756C76.0882 227.552 76.3715 226.702 76.3715 226.702Z" fill="#EB996E"/>
<path d="M72.7582 133.542V137.864L94.8618 218.698L80.6929 222.523C80.6929 222.523 79.2996 223.822 76.513 226.42C73.7265 228.97 59.1088 229.513 32.6602 228.049C34.88 188.66 35.9899 166.509 35.9899 161.597C35.9899 156.638 38.4458 149.553 43.3577 140.344L42.8618 136.164L72.7582 133.542Z" fill="#28365D"/>
<path d="M69.9951 156.142C69.9951 156.142 69.9951 156.213 69.9951 156.355C70.0423 156.449 70.0896 156.614 70.1368 156.851C70.184 157.276 70.2549 157.89 70.3493 158.692C70.6327 160.322 70.9161 162.66 71.3412 165.564C72.1913 171.303 73.3957 179.308 74.9543 188.093C76.5837 196.878 78.2131 204.742 79.4883 210.48C80.1259 213.314 80.6218 215.581 80.976 217.21C81.165 218.013 81.3067 218.627 81.4011 219.052C81.4483 219.241 81.472 219.406 81.472 219.548C81.5192 219.643 81.5428 219.69 81.5428 219.69C81.4956 219.737 81.472 219.69 81.472 219.548C81.4247 219.454 81.3775 219.312 81.3303 219.123C81.1886 218.651 81.0233 218.037 80.8344 217.281C80.4093 215.722 79.9134 213.385 79.2049 210.551C77.9297 204.812 76.2295 196.949 74.6 188.164C73.0414 179.379 71.8371 171.374 71.0578 165.564C70.7036 162.66 70.4202 160.322 70.2077 158.692C70.1604 157.89 70.1132 157.276 70.066 156.851C70.0187 156.662 69.9951 156.496 69.9951 156.355C69.9951 156.213 69.9951 156.142 69.9951 156.142Z" fill="#455A64"/>
<path d="M41.5156 163.581C41.5156 163.581 41.5629 163.723 41.6573 164.006C41.7518 164.384 41.8935 164.856 42.0824 165.423C42.4366 166.627 42.9325 168.328 43.4993 170.382C44.7745 174.633 46.6164 180.442 48.8126 186.747C51.0088 193.052 53.205 198.72 54.9053 202.829C55.6846 204.813 56.393 206.442 56.8181 207.646C57.0542 208.166 57.2431 208.591 57.3848 208.922C57.4793 209.252 57.5265 209.418 57.5265 209.418C57.5265 209.418 57.4557 209.276 57.314 208.992C57.1723 208.662 56.9834 208.237 56.7472 207.717C56.1805 206.584 55.472 204.954 54.6219 202.9C52.9216 198.862 50.6546 193.194 48.4584 186.889C46.2622 180.513 44.4911 174.704 43.2867 170.453C42.6491 168.328 42.2241 166.627 41.9407 165.423C41.799 164.856 41.6809 164.408 41.5865 164.077C41.5392 163.746 41.5156 163.581 41.5156 163.581Z" fill="#455A64"/>
<path d="M74.1043 139.847C74.1043 139.847 73.6793 139.918 72.9 139.989C72.1207 140.06 71.058 140.131 69.6411 140.201C66.8782 140.414 63.1234 140.556 58.8727 140.556C54.6929 140.556 50.8673 140.485 48.1043 140.343C46.7583 140.201 45.6248 140.131 44.8455 140.131C44.0662 140.06 43.6411 139.989 43.6411 139.989C43.6411 139.918 44.0662 139.918 44.8455 139.989C45.6956 139.989 46.7819 140.012 48.1043 140.06C50.8673 140.131 54.6929 140.201 58.8727 140.201C63.0526 140.201 66.8782 140.06 69.6411 139.989C70.9635 139.942 72.0498 139.894 72.9 139.847C73.6793 139.847 74.1043 139.847 74.1043 139.847Z" fill="#455A64"/>
<path d="M53.7719 85.9351C53.5594 85.4391 67.87 96.8451 69.6411 102.371C70.8219 106.055 71.5303 113.234 71.7665 123.908L72.7583 134.18L44.2788 136.164L43.4995 134.18L41.3741 128.442L38.4695 119.799C33.7937 112.525 30.9836 107.33 30.039 104.213C28.9055 100.34 29.2833 96.3964 31.1725 92.3819L37.6194 85.1558L53.7719 85.9351Z" fill="#FF4846"/>
<path d="M37.6195 85.6515C36.5804 83.7151 36.3915 82.3218 37.0527 81.4717C37.832 80.409 51.505 81.6842 54.3388 82.3218C55.4251 82.5579 55.4015 83.8804 54.268 86.2891L37.6195 85.6515Z" fill="#FF725E"/>
<g opacity="0.3">
<path opacity="0.3" d="M45.8372 99.4663C47.0415 102.583 45.3413 112.148 45.1287 114.415C44.8453 116.752 44.2077 118.949 43.4993 121.145C43.2159 122.207 42.9325 123.341 43.4993 124.262C44.4203 125.679 46.829 125.325 48.0334 126.529C45.8372 127.592 43.3576 127.875 41.0197 127.379C40.5947 127.308 40.1696 127.167 39.8862 126.812C39.6737 126.6 39.6028 126.246 39.532 125.962C38.8944 122.562 38.5402 119.09 39.2486 115.761C39.8862 112.36 43.0742 104.284 45.7663 102.158" fill="black"/>
</g>
<path d="M46.333 103.717C46.4747 103.717 45.9787 105.276 44.9869 106.976C43.9951 108.676 42.7907 109.81 42.7199 109.739C42.649 109.668 43.6409 108.464 44.6327 106.834C45.6954 105.134 46.2621 103.646 46.333 103.717Z" fill="#263238"/>
<path d="M54.3386 85.9351C54.3386 86.006 54.0552 86.0768 53.6302 86.1476C53.2759 86.2185 52.6383 86.3602 51.8591 86.431C50.3005 86.6436 48.1751 86.7852 45.7664 86.7144C43.4285 86.5727 41.3032 86.2185 39.8155 85.8643C39.0362 85.6517 38.3986 85.51 38.0443 85.3683C37.6193 85.2267 37.4067 85.1322 37.4067 85.085C37.4067 85.085 38.3277 85.2975 39.8155 85.5809C41.374 85.8643 43.4285 86.2185 45.8373 86.2893C48.1751 86.431 50.3005 86.3602 51.8591 86.2185C53.3468 86.0768 54.3386 85.9351 54.3386 85.9351Z" fill="#263238"/>
<path d="M64.3282 113.494C64.2573 113.494 64.5407 112.714 64.7532 111.439C64.8949 110.164 64.9658 108.393 64.6824 106.48C64.3282 104.567 63.6197 102.867 62.9821 101.804C62.4153 100.671 61.9194 100.033 61.9194 99.9624C61.9667 99.9624 62.1084 100.104 62.3445 100.387C62.557 100.671 62.9113 101.096 63.2655 101.663C63.9031 102.725 64.6824 104.426 65.0366 106.409C65.3908 108.393 65.2491 110.235 64.9658 111.51C64.8241 112.148 64.6824 112.644 64.6115 112.998C64.4698 113.328 64.3754 113.494 64.3282 113.494Z" fill="#263238"/>
<g opacity="0.3">
<path opacity="0.3" d="M52.9934 86.0057C52.1433 87.0684 50.6555 87.4226 49.3095 87.6352C45.6256 88.0602 41.6583 87.2101 38.3994 85.439C40.5956 86.0057 43.2169 86.2183 45.4839 86.4308C47.7509 86.6433 50.9389 86.8559 52.9934 86.0057Z" fill="black"/>
</g>
<g opacity="0.3">
<path opacity="0.3" d="M61.5649 116.752C64.1154 114.06 65.3906 110.235 64.8946 106.551C65.2489 107.968 65.3197 108.818 65.3906 110.235C65.4614 111.722 65.2489 113.139 64.3987 114.344C63.5486 115.548 63.0527 116.257 61.5649 116.752Z" fill="black"/>
</g>
<path d="M45.767 98.9697C46.6171 102.323 45.5308 105.818 42.5081 109.455L40.5953 126.316C44.0431 126.694 52.0249 126.056 64.5408 124.403L65.9577 132.763C60.2429 134.699 54.8351 136.258 49.7343 137.438C44.5862 138.619 38.4463 139.257 31.3146 139.351C29.7561 139.54 28.4336 138.241 27.3473 135.455C25.7179 131.346 29.8269 96.8444 31.3146 94.5773C31.4091 94.4356 31.5036 94.2939 31.598 94.1523C34.0067 91.0351 38.6825 90.6809 41.7288 93.2313C43.3582 94.6482 45.1294 96.561 45.767 98.9697Z" fill="#FFBE9D"/>
<path d="M70.4917 119.231L74.6715 116.398L77.7179 113.847C78.0012 114.697 77.8123 115.595 77.1511 116.539C76.5371 117.484 75.7106 118.665 74.6715 120.082L70.4917 119.231Z" fill="#FFBE9D"/>
<path d="M76.7968 117.531C76.7259 117.531 77.0093 117.177 77.2927 116.61C77.5761 115.972 77.8594 114.98 77.5761 113.918L77.8594 113.989C76.9385 114.697 75.9466 115.618 74.8131 116.539C74.7187 116.586 74.6478 116.633 74.6006 116.681C73.656 117.342 72.7586 117.932 71.9085 118.452C71.1292 119.019 70.3499 119.514 69.7123 119.869C68.3662 120.577 67.587 121.002 67.5161 120.931C67.5161 120.931 68.2954 120.435 69.5706 119.656C70.2082 119.231 70.9167 118.735 71.7668 118.168C72.5697 117.649 73.4435 117.058 74.3881 116.397C74.4353 116.35 74.5061 116.303 74.6006 116.256C75.6633 115.335 76.7259 114.484 77.6469 113.705L77.8594 113.563L77.9303 113.776C78.1428 115.051 77.8594 116.043 77.5052 116.681C77.2927 116.964 77.151 117.177 77.0093 117.318C76.8676 117.46 76.7968 117.531 76.7968 117.531Z" fill="#EB996E"/>
<path d="M68.9336 126.387C69.0753 126.103 80.1979 113.706 82.9608 110.659C83.3151 110.234 83.8818 110.163 84.3777 110.376C85.0862 110.73 85.2279 111.651 84.732 112.218L70.4922 128.087L68.9336 126.387Z" fill="#263238"/>
<path d="M79.489 122.348C80.4336 122.821 80.6697 123.482 80.1974 124.332L79.7015 125.182C80.5989 125.938 80.4808 126.694 79.3473 127.449C79.8668 128.11 79.5834 128.843 78.4971 129.645C76.8677 130.85 74.7424 131.558 74.1756 131.629C73.6797 131.7 69.9249 131.983 69.5707 132.054C69.3346 132.054 67.7051 132.408 64.6824 133.117L62.6279 124.686C64.7533 124.19 65.6743 123.269 66.0285 122.703C66.3827 122.136 66.8078 121.569 67.3037 121.144C68.8623 119.869 70.7751 119.09 70.8459 119.019C70.9404 118.972 72.617 119.278 75.8759 119.94L76.7969 119.869C78.4499 118.924 79.489 118.57 79.914 118.806C80.5516 119.16 81.2601 120.365 80.7642 120.932C80.4808 121.357 80.0557 121.829 79.489 122.348Z" fill="#FFBE9D"/>
<path d="M77.4342 123.553C77.3634 123.482 77.9302 123.27 78.4969 122.844C79.1345 122.49 79.5596 122.136 79.6304 122.207C79.7013 122.278 79.347 122.774 78.7094 123.128C78.0718 123.553 77.4342 123.695 77.4342 123.553Z" fill="#EB996E"/>
<path d="M78.852 125.89C78.7812 125.819 78.9229 125.536 79.2063 125.323C79.4896 125.111 79.773 124.969 79.8439 125.04C79.9147 125.111 79.7022 125.394 79.4188 125.607C79.1354 125.819 78.9229 125.961 78.852 125.89Z" fill="#EB996E"/>
<path d="M78.356 127.733C78.356 127.662 78.6393 127.52 78.9227 127.379C79.2769 127.308 79.5603 127.166 79.6312 127.237C79.6312 127.308 79.4186 127.591 79.0644 127.733C78.7102 127.875 78.356 127.804 78.356 127.733Z" fill="#EB996E"/>
<path d="M76.7967 119.869C76.7967 119.94 75.6632 120.153 74.2463 120.224C72.7585 120.294 71.625 120.436 71.625 120.365C71.625 120.224 72.7585 119.94 74.1754 119.869C75.5923 119.728 76.7967 119.799 76.7967 119.869Z" fill="#EB996E"/>
<path d="M40.8079 126.103C40.8787 126.174 40.0286 127.308 38.8951 128.583C37.8324 129.858 36.8406 130.779 36.7698 130.708C36.6989 130.637 37.549 129.575 38.6117 128.299C39.7452 127.024 40.7371 126.032 40.8079 126.103Z" fill="#EB996E"/>
<path d="M45.5541 103.291C45.5541 103.291 45.625 102.937 45.6958 102.229C45.7667 101.591 45.8375 100.599 45.5541 99.395C45.3416 98.1907 44.704 96.9154 43.783 95.6402C42.862 94.365 41.4451 93.1607 39.8157 92.4522C38.1154 91.6729 36.2735 91.5313 34.7857 92.098C33.298 92.5939 32.1645 93.5149 31.5269 94.5776C30.9601 95.6402 30.6768 96.5612 30.5351 97.2697C30.3934 97.9073 30.3225 98.2615 30.3225 98.2615C30.2753 98.2615 30.2753 98.167 30.3225 97.9781C30.3225 97.8364 30.3225 97.553 30.3934 97.1988C30.5351 96.5612 30.7476 95.5694 31.3144 94.4359C31.5977 93.94 32.0228 93.3732 32.6604 92.8773C33.2272 92.4522 33.9356 92.0272 34.7149 91.8146C36.2735 91.177 38.1863 91.3187 39.9574 92.098C41.6577 92.8773 43.0746 94.0817 43.9956 95.4277C44.9874 96.7029 45.625 98.1198 45.8375 99.3242C46.0501 100.599 45.9792 101.591 45.8375 102.229C45.7903 102.607 45.7431 102.866 45.6958 103.008C45.6486 103.197 45.6014 103.291 45.5541 103.291Z" fill="#263238"/>
<path d="M100.318 71.9784V100.104C100.318 101.308 99.3257 102.3 98.1214 102.3H87.5655L83.9524 108.18L79.7726 102.3H69.075C67.8707 102.3 66.9497 101.308 66.9497 100.104V71.9784C66.9497 70.774 67.8707 69.7822 69.075 69.7822H98.1214C99.3257 69.7822 100.318 70.774 100.318 71.9784Z" fill="#FAFAFA"/>
<path d="M98.1213 69.7818C98.3102 69.7818 98.5936 69.8291 98.9715 69.9235C99.2548 70.0652 99.5382 70.2777 99.8216 70.5611C100.105 70.9153 100.318 71.4112 100.318 71.978C100.388 74.1742 100.388 77.3622 100.388 81.3295C100.388 85.3677 100.388 90.2559 100.459 95.7818C100.459 97.1515 100.459 98.5684 100.459 100.032C100.459 100.741 100.105 101.591 99.4674 102.016C99.1131 102.229 98.6881 102.37 98.3339 102.441C97.9088 102.441 97.5546 102.441 97.1295 102.441C94.1068 102.441 90.9188 102.441 87.5655 102.441L87.7072 102.37C86.5736 104.212 85.3693 106.267 84.0941 108.321L83.9524 108.534L83.8107 108.321C82.4646 106.409 81.0477 104.425 79.6309 102.37L79.7725 102.441C77.3638 102.441 74.8134 102.441 72.263 102.441C71.1295 102.441 69.996 102.512 68.7916 102.441C68.154 102.37 67.5873 102.016 67.233 101.52C66.808 101.095 66.6663 100.387 66.7371 99.82C66.7371 97.5529 66.7371 95.3331 66.7371 93.1606C66.7371 88.7682 66.7371 84.5647 66.7371 80.5502C66.7371 78.5666 66.7371 76.6065 66.7371 74.6701C66.7371 73.7255 66.7371 72.7809 66.7371 71.8363C66.808 70.8445 67.5164 69.9944 68.5082 69.711C68.9333 69.6401 69.4292 69.711 69.8543 69.6401C70.2794 69.6401 70.7044 69.6401 71.1295 69.6401C72.0269 69.6401 72.877 69.6401 73.6799 69.6401C75.3329 69.6874 76.9151 69.711 78.4265 69.711C84.5191 69.711 89.4074 69.711 92.8788 69.711C94.5319 69.7582 95.8307 69.7818 96.7753 69.7818C97.2003 69.7818 97.5309 69.7818 97.7671 69.7818C97.9088 69.7818 98.0269 69.7818 98.1213 69.7818C98.0269 69.8291 97.9088 69.8527 97.7671 69.8527C97.5309 69.8527 97.2003 69.8527 96.7753 69.8527C95.8307 69.8527 94.5319 69.8527 92.8788 69.8527C89.4074 69.9235 84.5191 69.9235 78.4265 69.9235C76.9151 69.9235 75.3329 69.9235 73.6799 69.9235C72.877 69.9235 72.0269 69.9471 71.1295 69.9944C70.7044 69.9944 70.2794 69.9944 69.8543 69.9944C69.4292 69.9944 68.9333 69.9235 68.5791 70.0652C67.7289 70.2069 67.0913 70.9862 67.0913 71.9072C67.0913 72.8045 67.0913 73.7255 67.0913 74.6701C67.0913 76.6065 67.0913 78.5666 67.0913 80.5502C67.0913 84.5647 67.0913 88.7682 67.0913 93.1606C67.0913 95.3331 67.0913 97.5529 67.0913 99.82C67.0913 100.387 67.1622 100.883 67.5164 101.308C67.7998 101.733 68.2957 102.016 68.8625 102.087C69.9251 102.087 71.1295 102.087 72.263 102.087C74.8134 102.087 77.3638 102.087 79.7725 102.087H79.8434L79.9142 102.158C81.3311 104.212 82.748 106.196 84.0941 108.109H83.8107C85.0859 106.054 86.2903 104.071 87.4238 102.158L87.4946 102.087H87.5655C90.9188 102.087 94.1068 102.087 97.1295 102.087C97.5546 102.087 97.9088 102.158 98.263 102.087C98.6172 102.087 98.9715 101.945 99.2548 101.804C99.8216 101.379 100.176 100.67 100.105 100.032C100.105 98.5684 100.129 97.1515 100.176 95.7818C100.176 90.2559 100.176 85.3677 100.176 81.3295C100.176 77.3622 100.247 74.1742 100.247 71.978C100.247 71.4112 100.034 70.9862 99.7508 70.632C99.5382 70.3486 99.184 70.136 98.9715 69.9944C98.4047 69.7818 98.1213 69.8527 98.1213 69.7818Z" fill="#263238"/>
<path d="M88.4857 90.3278C88.4857 90.3278 88.4148 90.3278 88.2731 90.3278C88.1314 90.375 87.9425 90.3986 87.7064 90.3986C87.1868 90.3986 86.4784 90.3986 85.581 90.3986C83.8099 90.3986 81.3303 90.3986 78.4966 90.3986H78.4257C78.3785 90.0208 78.3312 89.6193 78.284 89.1943C77.7881 85.7229 77.363 82.6766 77.0797 80.6929H77.1505C76.3476 80.6929 75.71 80.6929 75.2377 80.6929C75.0488 80.6929 74.8835 80.6929 74.7418 80.6929C74.6473 80.6929 74.6001 80.6929 74.6001 80.6929C74.6001 80.6929 74.6473 80.6929 74.7418 80.6929C74.8835 80.6929 75.0488 80.6693 75.2377 80.6221C75.71 80.6221 76.3476 80.6221 77.1505 80.6221V80.6929C77.4339 82.6766 77.9298 85.7229 78.4257 89.1943C78.4729 89.5721 78.5202 89.95 78.5674 90.3278H78.4966C81.3303 90.3278 83.8099 90.3278 85.581 90.3278C86.4784 90.3278 87.1868 90.3278 87.7064 90.3278C87.9425 90.3278 88.1314 90.3278 88.2731 90.3278C88.4148 90.3278 88.4857 90.3278 88.4857 90.3278Z" fill="#263238"/>
<path d="M78.4253 90.5399C78.3781 90.5399 78.3309 90.5163 78.2836 90.4691L77.0084 80.8342H74.7414C74.5289 80.8342 74.458 80.8342 74.458 80.6925C74.458 80.5508 74.5289 80.5508 74.7414 80.5508H75.2373L77.1501 80.48C77.221 80.48 77.2918 80.5508 77.2918 80.6217L78.6379 90.1857H88.2727C88.4853 90.1857 88.6269 90.1857 88.6269 90.3274C88.6269 90.4691 88.4853 90.4691 88.2727 90.4691H87.706L85.5806 90.5399H78.4253Z" fill="#263238"/>
<path d="M78.2134 88.2738C78.2134 88.2738 78.237 88.2738 78.2843 88.2738C78.2843 88.2738 78.3315 88.2738 78.426 88.2738C78.5676 88.2738 78.7566 88.2738 78.9927 88.2738C79.5122 88.2738 80.2207 88.2738 81.1181 88.2738C82.96 88.2738 85.5104 88.203 88.4859 88.203L88.4151 88.2738C88.6276 86.9986 88.8401 85.7234 89.1235 84.3065C89.218 83.598 89.336 82.9132 89.4777 82.252L89.5486 82.3228C86.0772 82.3228 83.0309 82.3228 80.8347 82.3228C79.772 82.252 78.9219 82.252 78.2843 82.252C78.0009 82.252 77.7647 82.252 77.5758 82.252C77.5286 82.252 77.4814 82.252 77.4341 82.252C77.3869 82.252 77.3633 82.252 77.3633 82.252C77.3633 82.252 77.3869 82.252 77.4341 82.252C77.4814 82.252 77.5286 82.252 77.5758 82.252C77.7647 82.252 78.0009 82.252 78.2843 82.252C78.9219 82.252 79.772 82.1812 80.8347 82.1812C83.0309 82.1812 86.0772 82.1812 89.5486 82.1812H89.6194V82.252C89.4777 82.9132 89.336 83.598 89.1943 84.3065C88.9818 85.7234 88.7693 87.0694 88.5567 88.2738L88.4859 88.3446C85.5104 88.3446 82.96 88.3446 81.1181 88.3446C80.2207 88.3446 79.5122 88.3446 78.9927 88.3446C78.7566 88.3446 78.5676 88.321 78.426 88.2738C78.3315 88.2738 78.2843 88.2738 78.2843 88.2738C78.237 88.2738 78.2134 88.2738 78.2134 88.2738Z" fill="#263238"/>
<path d="M78.213 88.4151C78.1422 88.4151 78.0713 88.4151 78.0713 88.2734C78.0713 88.2025 78.213 88.1317 78.213 88.1317H78.9923H81.1176L88.273 88.0609L89.2648 82.4641L77.4337 82.3933C77.3629 82.3933 77.2212 82.3933 77.2212 82.2516C77.2212 82.1099 77.3629 82.1099 77.4337 82.1099H78.2839L82.6762 82.0391H89.619C89.6662 82.0391 89.6898 82.0627 89.6898 82.1099C89.7371 82.1099 89.7607 82.1335 89.7607 82.1807L88.6272 88.3442C88.6272 88.4387 88.58 88.4859 88.4855 88.4859L78.2839 88.4151C78.2366 88.4151 78.213 88.4151 78.213 88.4151Z" fill="#263238"/>
<path d="M80.9769 93.0904C80.9769 93.0904 80.9769 92.9488 80.906 92.8071C80.906 92.6654 80.7643 92.4528 80.5518 92.3112C80.3393 92.1695 79.985 92.0278 79.7017 92.1695C79.3474 92.3111 79.0641 92.6654 79.0641 93.0904C79.0641 93.4447 79.3474 93.7989 79.7017 93.9406C79.985 94.0823 80.3393 94.0114 80.5518 93.7989C80.7643 93.6572 80.906 93.4447 80.906 93.303C80.9769 93.1613 80.9769 93.0904 80.9769 93.0904C80.9769 93.0904 81.0477 93.1613 80.9769 93.303C80.9769 93.4447 80.8352 93.728 80.6226 93.8697C80.4101 94.0823 79.985 94.224 79.6308 94.0823C79.2766 93.9406 78.9224 93.5155 78.9224 93.0904C78.9224 92.5945 79.2766 92.1695 79.6308 92.0986C79.985 91.9569 80.4101 92.0278 80.6226 92.2403C80.8352 92.4528 80.9769 92.6654 80.9769 92.8071C81.0477 92.9488 80.9769 93.0904 80.9769 93.0904Z" fill="#263238"/>
<path fill-rule="evenodd" clip-rule="evenodd" d="M79.8429 94.2245C79.7485 94.2245 79.654 94.2008 79.5596 94.1536C79.2053 94.0828 78.7803 93.6577 78.7803 93.0909C78.7803 92.5242 79.2053 92.0991 79.5596 91.9574C80.0555 91.8157 80.4805 91.9574 80.6931 92.17C80.9765 92.3825 81.1182 92.6659 81.1182 92.8076C81.1182 92.8784 81.1182 92.9492 81.1182 93.0909C81.1182 93.1618 81.1182 93.3035 81.1182 93.3035C81.1182 93.4452 80.9765 93.7285 80.6931 94.0119C80.5514 94.1536 80.1972 94.2953 79.8429 94.2245ZM80.1263 92.2408C79.9846 92.2408 79.8429 92.2644 79.7013 92.3117C79.4887 92.3825 79.2053 92.6659 79.2053 93.0909C79.2053 93.4452 79.4887 93.7285 79.7013 93.7994C80.0555 93.9411 80.3389 93.8702 80.4805 93.7285C80.6931 93.5869 80.7639 93.3743 80.8348 93.2326C80.8348 93.1854 80.8348 93.1382 80.8348 93.0909C80.8348 93.0437 80.8348 93.0201 80.8348 93.0201C80.8348 92.9729 80.8348 92.9256 80.8348 92.8784C80.7639 92.7367 80.6931 92.595 80.4805 92.3825C80.3861 92.3353 80.268 92.288 80.1263 92.2408Z" fill="#263238"/>
<path d="M87.4227 93.0897C87.4227 93.0897 87.4227 92.948 87.3518 92.8064C87.281 92.6647 87.2101 92.4521 86.9976 92.3104C86.7851 92.1688 86.4308 92.0271 86.0766 92.1687C85.7932 92.3104 85.5099 92.6647 85.5099 93.0897C85.5099 93.4439 85.7932 93.7982 86.0766 93.9399C86.4308 94.0815 86.7851 93.9399 86.9976 93.7982C87.2101 93.6565 87.281 93.444 87.3518 93.3023C87.4227 93.1606 87.4227 93.0897 87.4227 93.0897C87.4227 93.0897 87.4227 93.1606 87.4227 93.3023C87.3518 93.444 87.281 93.7273 87.0684 93.869C86.8559 94.0816 86.4308 94.1524 86.0766 94.0816C85.6515 93.9399 85.3682 93.5148 85.3682 93.0897C85.3682 92.5938 85.6515 92.1687 86.0766 92.0271C86.4308 91.9562 86.7851 92.0271 87.0684 92.2396C87.281 92.3813 87.3518 92.6647 87.4227 92.8064C87.4227 92.948 87.4227 93.0897 87.4227 93.0897Z" fill="#263238"/>
<path fill-rule="evenodd" clip-rule="evenodd" d="M86.2179 94.2232C86.1707 94.2232 86.0998 94.1995 86.0054 94.1523C85.6511 94.0106 85.2261 93.5855 85.2261 93.0896C85.2261 92.5229 85.5803 92.0978 86.0054 91.9561C86.5013 91.7436 86.9263 91.9561 87.1389 92.0978C87.4223 92.3812 87.4931 92.6646 87.5639 92.8063C87.5639 92.8063 87.5639 92.9479 87.5639 93.0896C87.5639 93.1605 87.5639 93.3022 87.5639 93.3022C87.4931 93.4439 87.4223 93.7272 87.1389 94.0106C86.9263 94.1523 86.643 94.294 86.2179 94.2232ZM86.5721 92.2395C86.4304 92.2395 86.2887 92.2631 86.147 92.3103C85.8637 92.3812 85.5803 92.6646 85.5803 93.0896C85.5803 93.4439 85.8637 93.7272 86.147 93.7981C86.4304 93.9398 86.7847 93.7981 86.9263 93.7272C87.1389 93.5856 87.2097 93.373 87.2097 93.2313C87.2569 93.1841 87.2806 93.1369 87.2806 93.0896C87.2806 93.0424 87.2806 93.0188 87.2806 93.0188C87.2806 92.9716 87.2569 92.9243 87.2097 92.8771C87.2097 92.7354 87.1389 92.5229 86.9263 92.3812C86.8319 92.334 86.7138 92.2867 86.5721 92.2395Z" fill="#263238"/>
<path d="M93.1614 83.2423C93.1614 85.0843 91.6736 86.572 89.8317 86.572C87.9897 86.572 86.502 85.0843 86.502 83.2423C86.502 81.4003 87.9897 79.9126 89.8317 79.9126C91.6736 79.9126 93.1614 81.4003 93.1614 83.2423Z" fill="#FF4846"/>
<path d="M87.9185 83.3134L88.4144 82.8175L89.4062 83.6676L91.319 81.8965L91.7441 82.3924L89.3354 84.6594L87.9185 83.3134Z" fill="white"/>
</svg>
